<?xml version="1.0" encoding="UTF-8"?>
<!DOCTYPE svg PUBLIC "-//W3C//DTD SVG 1.1//EN" "http://www.w3.org/Graphics/SVG/1.1/DTD/svg11.dtd">
<svg xmlns="http://www.w3.org/2000/svg" version="1.1" width="363px" height="357px" style="shape-rendering:geometricPrecision; text-rendering:geometricPrecision; image-rendering:optimizeQuality; fill-rule:evenodd; clip-rule:evenodd" xmlns:xlink="http://www.w3.org/1999/xlink">
<g><path style="opacity:1" fill="#e85430" d="M 114.5,0.5 C 159.501,0.333342 204.501,0.500009 249.5,1C 251.667,1.83333 253.167,3.33333 254,5.5C 263.006,30.8514 271.006,56.5181 278,82.5C 283.007,121.313 270.174,152.813 239.5,177C 220,191.167 200.5,205.333 181,219.5C 159.781,203.281 138.281,187.447 116.5,172C 90.1297,146.556 79.9631,115.722 86,79.5C 93.2003,53.8999 101.2,28.5665 110,3.5C 111.409,2.21886 112.909,1.21886 114.5,0.5 Z M 180.5,5.5 C 183.027,7.51023 184.861,10.1769 186,13.5C 191.788,31.5329 197.955,49.3662 204.5,67C 227.251,67.9781 249.918,68.9781 272.5,70C 254.167,83.6667 235.833,97.3333 217.5,111C 224.763,131.788 231.429,152.788 237.5,174C 237.167,174.5 236.833,175 236.5,175.5C 218.342,162.254 200.009,149.254 181.5,136.5C 162.912,149.711 144.412,163.044 126,176.5C 131.458,154.45 137.958,132.617 145.5,111C 127.02,97.3527 108.687,83.5194 90.5,69.5C 109.637,67.4149 128.804,67.0816 148,68.5C 152.113,68.8079 155.946,67.9746 159.5,66C 166.361,45.7796 173.361,25.613 180.5,5.5 Z"/></g>
<g><path style="opacity:1" fill="#1e234f" d="M 40.5,249.5 C 50.4474,248.297 57.2808,252.297 61,261.5C 69.4294,291.389 77.9294,321.222 86.5,351C 81.1131,351.784 75.7798,351.618 70.5,350.5C 66.888,342.71 63.888,334.71 61.5,326.5C 50.2131,325.355 38.8798,325.189 27.5,326C 24.4233,333.567 21.9233,341.4 20,349.5C 19.2496,350.126 18.4162,350.626 17.5,351C 12.5111,351.499 7.51108,351.666 2.5,351.5C 11.0716,319.211 20.5716,287.211 31,255.5C 33.8552,252.773 37.0219,250.773 40.5,249.5 Z M 43.5,266.5 C 45.3115,268.385 46.4782,270.719 47,273.5C 51.0164,286.046 54.5164,298.712 57.5,311.5C 48.8333,311.5 40.1667,311.5 31.5,311.5C 35.3427,296.463 39.3427,281.463 43.5,266.5 Z"/></g>
<g><path style="opacity:1" fill="#1e2450" d="M 318.5,249.5 C 336.885,248.277 349.385,256.277 356,273.5C 361.911,290.34 362.578,307.34 358,324.5C 353.123,341.551 341.956,351.217 324.5,353.5C 315.691,352.958 308.191,349.625 302,343.5C 289.813,325.56 286.146,305.894 291,284.5C 293.31,272.537 298.81,262.371 307.5,254C 311.157,252.178 314.824,250.678 318.5,249.5 Z M 320.5,262.5 C 328.196,261.432 333.696,264.432 337,271.5C 345.139,290.699 345.473,310.032 338,329.5C 328.605,344.299 319.605,343.966 311,328.5C 303.865,307.039 305.532,286.373 316,266.5C 317.397,264.93 318.897,263.596 320.5,262.5 Z"/></g>
<g><path style="opacity:1" fill="#1c224e" d="M 234.5,251.5 C 234.167,264.85 234.501,278.183 235.5,291.5C 236.107,291.376 236.44,291.043 236.5,290.5C 242.541,288.448 248.708,286.781 255,285.5C 265.744,286.028 272.744,291.361 276,301.5C 276.5,318.163 276.667,334.83 276.5,351.5C 271.167,351.5 265.833,351.5 260.5,351.5C 260.667,336.496 260.5,321.496 260,306.5C 258.367,301.174 254.701,298.841 249,299.5C 243.825,299.221 239.492,300.888 236,304.5C 235.171,309.802 234.671,315.136 234.5,320.5C 235.268,330.82 235.601,341.153 235.5,351.5C 230.167,351.5 224.833,351.5 219.5,351.5C 219.5,318.167 219.5,284.833 219.5,251.5C 224.5,251.5 229.5,251.5 234.5,251.5 Z"/></g>
<g><path style="opacity:0.251" fill="#c4c5d0" d="M 234.5,251.5 C 235.167,264.5 235.833,277.5 236.5,290.5C 236.44,291.043 236.107,291.376 235.5,291.5C 234.501,278.183 234.167,264.85 234.5,251.5 Z"/></g>
<g><path style="opacity:1" fill="#1c224e" d="M 203.5,341.5 C 204.167,341.5 204.5,341.833 204.5,342.5C 203.364,353.91 197.364,357.41 186.5,353C 181.481,350.306 178.314,346.139 177,340.5C 176.5,327.504 176.333,314.504 176.5,301.5C 173.482,301.665 170.482,301.498 167.5,301C 165.955,299.178 165.288,297.011 165.5,294.5C 165.288,291.989 165.955,289.822 167.5,288C 170.482,287.502 173.482,287.335 176.5,287.5C 176.5,280.5 176.5,273.5 176.5,266.5C 181.833,266.5 187.167,266.5 192.5,266.5C 192.5,273.5 192.5,280.5 192.5,287.5C 203.527,286.399 206.86,290.899 202.5,301C 199.183,301.498 195.85,301.665 192.5,301.5C 192.102,314.219 192.602,326.886 194,339.5C 196.951,341.076 200.117,341.743 203.5,341.5 Z"/></g>
<g><path style="opacity:1" fill="#1c224e" d="M 96.5,287.5 C 101.833,287.5 107.167,287.5 112.5,287.5C 112.333,303.17 112.5,318.837 113,334.5C 115.106,338.823 118.606,340.823 123.5,340.5C 126.226,340.318 128.893,339.818 131.5,339C 134.057,338.315 135.891,336.815 137,334.5C 137.5,318.837 137.667,303.17 137.5,287.5C 142.833,287.5 148.167,287.5 153.5,287.5C 153.5,308.833 153.5,330.167 153.5,351.5C 149.387,352.396 145.387,352.229 141.5,351C 140.228,349.693 139.228,348.193 138.5,346.5C 128.049,353.765 117.049,354.932 105.5,350C 101.61,347.404 98.7766,343.904 97,339.5C 96.5001,322.17 96.3334,304.837 96.5,287.5 Z"/></g>
<g><path style="opacity:0.498" fill="#b1b0bd" d="M 203.5,341.5 C 203.56,340.957 203.893,340.624 204.5,340.5C 205.773,341.257 205.773,341.923 204.5,342.5C 204.5,341.833 204.167,341.5 203.5,341.5 Z"/></g>
</svg>
