<?xml version="1.0" encoding="UTF-8"?>
<!DOCTYPE svg PUBLIC "-//W3C//DTD SVG 1.1//EN" "http://www.w3.org/Graphics/SVG/1.1/DTD/svg11.dtd">
<svg xmlns="http://www.w3.org/2000/svg" version="1.1" width="480px" height="480px" style="shape-rendering:geometricPrecision; text-rendering:geometricPrecision; image-rendering:optimizeQuality; fill-rule:evenodd; clip-rule:evenodd" xmlns:xlink="http://www.w3.org/1999/xlink">
<g><path style="opacity:0.998" fill="#673ab7" d="M 99.5,59.5 C 192.834,59.3333 286.167,59.5 379.5,60C 400.667,65.1667 413.833,78.3333 419,99.5C 419.667,192.833 419.667,286.167 419,379.5C 413.833,400.667 400.667,413.833 379.5,419C 286.167,419.667 192.833,419.667 99.5,419C 78.3333,413.833 65.1667,400.667 60,379.5C 59.3333,286.167 59.3333,192.833 60,99.5C 65.3483,78.319 78.5149,64.9857 99.5,59.5 Z"/></g>
<g><path style="opacity:1" fill="#fefefe" d="M 149.5,119.5 C 187.521,119.079 225.521,119.579 263.5,121C 285.123,124.06 303.289,133.56 318,149.5C 330.073,168.152 332.74,188.152 326,209.5C 321.764,221.737 313.93,230.903 302.5,237C 326.645,244.825 338.978,261.492 339.5,287C 339.832,326.665 320.499,349.998 281.5,357C 276.185,357.813 270.852,358.479 265.5,359C 226.835,359.5 188.168,359.667 149.5,359.5C 149.5,279.5 149.5,199.5 149.5,119.5 Z"/></g>
<g><path style="opacity:1" fill="#673ab7" d="M 209.5,159.5 C 224.837,159.333 240.17,159.5 255.5,160C 269.515,162.848 277.515,171.348 279.5,185.5C 278.889,201.274 270.889,210.774 255.5,214C 240.17,214.5 224.837,214.667 209.5,214.5C 209.5,196.167 209.5,177.833 209.5,159.5 Z"/></g>
<g><path style="opacity:1" fill="#673ab7" d="M 209.5,259.5 C 227.503,259.333 245.503,259.5 263.5,260C 283.84,265.019 292.007,277.852 288,298.5C 284.091,310.408 275.924,317.242 263.5,319C 245.503,319.5 227.503,319.667 209.5,319.5C 209.5,299.5 209.5,279.5 209.5,259.5 Z"/></g>
</svg>
