<?xml version="1.0" encoding="UTF-8"?>
<!DOCTYPE svg PUBLIC "-//W3C//DTD SVG 1.1//EN" "http://www.w3.org/Graphics/SVG/1.1/DTD/svg11.dtd">
<svg xmlns="http://www.w3.org/2000/svg" version="1.1" width="480px" height="480px" style="shape-rendering:geometricPrecision; text-rendering:geometricPrecision; image-rendering:optimizeQuality; fill-rule:evenodd; clip-rule:evenodd" xmlns:xlink="http://www.w3.org/1999/xlink">
<g><path style="opacity:1" fill="#0287d1" d="M 259.5,139.5 C 242.833,139.5 226.167,139.5 209.5,139.5C 209.5,122.833 209.5,106.167 209.5,89.5C 226.167,89.5 242.833,89.5 259.5,89.5C 259.5,106.167 259.5,122.833 259.5,139.5 Z"/></g>
<g><path style="opacity:1" fill="#01569b" d="M 159.5,139.5 C 159.5,156.167 159.5,172.833 159.5,189.5C 142.833,189.5 126.167,189.5 109.5,189.5C 109.5,172.833 109.5,156.167 109.5,139.5C 126.167,139.5 142.833,139.5 159.5,139.5 Z"/></g>
<g><path style="opacity:1" fill="#0287d1" d="M 159.5,139.5 C 176.167,139.5 192.833,139.5 209.5,139.5C 209.5,156.167 209.5,172.833 209.5,189.5C 192.833,189.5 176.167,189.5 159.5,189.5C 159.5,172.833 159.5,156.167 159.5,139.5 Z"/></g>
<g><path style="opacity:1" fill="#01569b" d="M 209.5,139.5 C 226.167,139.5 242.833,139.5 259.5,139.5C 259.5,156.167 259.5,172.833 259.5,189.5C 242.833,189.5 226.167,189.5 209.5,189.5C 209.5,172.833 209.5,156.167 209.5,139.5 Z"/></g>
<g><path style="opacity:0.996" fill="#03a8f3" d="M 382.5,269.5 C 374.228,268.356 366.728,265.356 360,260.5C 347.377,269.614 333.21,273.281 317.5,271.5C 305.867,272.473 294.867,270.307 284.5,265C 282.415,263.959 280.748,262.459 279.5,260.5C 271.495,266.448 262.495,269.948 252.5,271C 233.517,273.728 215.851,270.228 199.5,260.5C 190.606,265.975 180.939,269.141 170.5,270C 160.5,270.667 150.5,270.667 140.5,270C 132.384,268.856 125.217,265.689 119,260.5C 107.858,267.488 95.6916,270.488 82.5,269.5C 70.0934,270.585 59.0934,267.252 49.5,259.5C 40.7985,266.514 30.7985,269.847 19.5,269.5C 18.6039,259.532 18.2705,249.532 18.5,239.5C 32.1667,239.5 45.8333,239.5 59.5,239.5C 76.1667,239.5 92.8333,239.5 109.5,239.5C 126.167,239.5 142.833,239.5 159.5,239.5C 176.167,239.5 192.833,239.5 209.5,239.5C 226.167,239.5 242.833,239.5 259.5,239.5C 276.167,239.5 292.833,239.5 309.5,239.5C 323.691,239.572 337.691,238.072 351.5,235C 354.102,234.117 356.269,232.617 358,230.5C 339.133,195.843 344.633,165.51 374.5,139.5C 393.379,154.258 402.213,173.591 401,197.5C 410.099,191.558 420.099,188.558 431,188.5C 440.692,189.132 450.192,190.799 459.5,193.5C 455.977,214.735 445.31,231.235 427.5,243C 414.824,248.93 401.49,251.096 387.5,249.5C 386.402,255.959 384.402,262.126 381.5,268C 382.056,268.383 382.389,268.883 382.5,269.5 Z"/></g>
<g><path style="opacity:1" fill="#01569b" d="M 109.5,189.5 C 109.5,206.167 109.5,222.833 109.5,239.5C 92.8333,239.5 76.1667,239.5 59.5,239.5C 59.5,222.833 59.5,206.167 59.5,189.5C 76.1667,189.5 92.8333,189.5 109.5,189.5 Z"/></g>
<g><path style="opacity:1" fill="#0287d1" d="M 109.5,189.5 C 126.167,189.5 142.833,189.5 159.5,189.5C 159.5,206.167 159.5,222.833 159.5,239.5C 142.833,239.5 126.167,239.5 109.5,239.5C 109.5,222.833 109.5,206.167 109.5,189.5 Z"/></g>
<g><path style="opacity:1" fill="#01569b" d="M 159.5,189.5 C 176.167,189.5 192.833,189.5 209.5,189.5C 209.5,206.167 209.5,222.833 209.5,239.5C 192.833,239.5 176.167,239.5 159.5,239.5C 159.5,222.833 159.5,206.167 159.5,189.5 Z"/></g>
<g><path style="opacity:1" fill="#0287d1" d="M 209.5,189.5 C 226.167,189.5 242.833,189.5 259.5,189.5C 259.5,206.167 259.5,222.833 259.5,239.5C 242.833,239.5 226.167,239.5 209.5,239.5C 209.5,222.833 209.5,206.167 209.5,189.5 Z"/></g>
<g><path style="opacity:1" fill="#01569b" d="M 259.5,189.5 C 276.167,189.5 292.833,189.5 309.5,189.5C 309.5,206.167 309.5,222.833 309.5,239.5C 292.833,239.5 276.167,239.5 259.5,239.5C 259.5,222.833 259.5,206.167 259.5,189.5 Z"/></g>
<g><path style="opacity:0.993" fill="#364750" d="M 382.5,269.5 C 400.592,272.821 417.259,269.488 432.5,259.5C 435.219,262.706 438.553,265.206 442.5,267C 448.076,268.485 453.743,269.318 459.5,269.5C 459.5,272.833 459.5,276.167 459.5,279.5C 431.833,279.5 404.167,279.5 376.5,279.5C 257.833,279.5 139.167,279.5 20.5,279.5C 19.5206,276.375 19.1872,273.042 19.5,269.5C 30.7985,269.847 40.7985,266.514 49.5,259.5C 59.0934,267.252 70.0934,270.585 82.5,269.5C 95.6916,270.488 107.858,267.488 119,260.5C 125.217,265.689 132.384,268.856 140.5,270C 150.5,270.667 160.5,270.667 170.5,270C 180.939,269.141 190.606,265.975 199.5,260.5C 215.851,270.228 233.517,273.728 252.5,271C 262.495,269.948 271.495,266.448 279.5,260.5C 280.748,262.459 282.415,263.959 284.5,265C 294.867,270.307 305.867,272.473 317.5,271.5C 333.21,273.281 347.377,269.614 360,260.5C 366.728,265.356 374.228,268.356 382.5,269.5 Z"/></g>
<g><path style="opacity:1" fill="#0288d1" d="M 20.5,279.5 C 139.167,279.5 257.833,279.5 376.5,279.5C 348.65,340.503 301.984,378.669 236.5,394C 223.632,396.815 210.632,398.648 197.5,399.5C 170.467,392.135 152.467,375.135 143.5,348.5C 148.7,345.767 150.533,341.434 149,335.5C 146.643,331.797 143.309,329.797 139,329.5C 128.073,333.014 116.906,335.514 105.5,337C 84.8415,338.333 64.5082,339.833 44.5,341.5C 31.6101,322.847 23.6101,302.18 20.5,279.5 Z"/></g>
<g><path style="opacity:1" fill="#f9fbfd" d="M 174.5,299.5 C 191.979,298.812 200.146,307.145 199,324.5C 194.835,335.984 186.668,340.817 174.5,339C 163.016,334.835 158.183,326.668 160,314.5C 162.351,306.984 167.184,301.984 174.5,299.5 Z"/></g>
<g><path style="opacity:1" fill="#3c4c53" d="M 175.5,309.5 C 187.814,309.465 191.647,315.131 187,326.5C 179.782,331.357 174.115,330.023 170,322.5C 168.831,316.853 170.665,312.519 175.5,309.5 Z"/></g>
<g><path style="opacity:1" fill="#374851" d="M 143.5,348.5 C 116.381,356.199 88.7147,359.699 60.5,359C 59.2107,357.198 57.5441,356.031 55.5,355.5C 51.351,351.196 47.6843,346.53 44.5,341.5C 64.5082,339.833 84.8415,338.333 105.5,337C 116.906,335.514 128.073,333.014 139,329.5C 143.309,329.797 146.643,331.797 149,335.5C 150.533,341.434 148.7,345.767 143.5,348.5 Z"/></g>
<g><path style="opacity:1" fill="#7ed1f8" d="M 143.5,348.5 C 152.467,375.135 170.467,392.135 197.5,399.5C 162.991,402.352 129.658,397.518 97.5,385C 81.3815,378.027 67.3815,368.193 55.5,355.5C 57.5441,356.031 59.2107,357.198 60.5,359C 88.7147,359.699 116.381,356.199 143.5,348.5 Z"/></g>
</svg>
