<?xml version="1.0" encoding="UTF-8"?>
<!DOCTYPE svg PUBLIC "-//W3C//DTD SVG 1.1//EN" "http://www.w3.org/Graphics/SVG/1.1/DTD/svg11.dtd">
<svg xmlns="http://www.w3.org/2000/svg" version="1.1" width="480px" height="480px" style="shape-rendering:geometricPrecision; text-rendering:geometricPrecision; image-rendering:optimizeQuality; fill-rule:evenodd; clip-rule:evenodd" xmlns:xlink="http://www.w3.org/1999/xlink">
<g><path style="opacity:0.973" fill="#202020" d="M 114.5,119.5 C 162.233,115.785 199.067,133.785 225,173.5C 232.26,186.281 236.927,199.947 239,214.5C 239.5,229.496 239.667,244.496 239.5,259.5C 172.833,259.5 106.167,259.5 39.5,259.5C 38.5843,296.168 52.9176,325.001 82.5,346C 119.791,365.67 155.125,362.67 188.5,337C 198.074,328.346 205.574,318.179 211,306.5C 213.264,303.567 216.098,301.4 219.5,300C 224.823,299.501 230.156,299.334 235.5,299.5C 222.411,342.086 194.077,368.253 150.5,378C 93.8772,384.944 53.3772,362.777 29,311.5C 25.4008,302.437 22.7342,293.104 21,283.5C 19.413,261.533 19.0797,239.533 20,217.5C 26.3719,175.238 48.8719,145.071 87.5,127C 96.4134,123.692 105.413,121.192 114.5,119.5 Z M 128.5,139.5 C 172.908,142.089 202.075,164.423 216,206.5C 218.213,217.382 219.379,228.382 219.5,239.5C 159.5,239.5 99.5,239.5 39.5,239.5C 39.06,204.556 52.3933,176.39 79.5,155C 94.531,145.333 110.864,140.166 128.5,139.5 Z"/></g>
<g><path style="opacity:0.96" fill="#202020" d="M 240.5,130.5 C 254.699,126.399 266.532,130.065 276,141.5C 298.673,171.666 321.506,201.666 344.5,231.5C 367.494,201.666 390.327,171.666 413,141.5C 422.295,130.291 434.129,126.458 448.5,130C 418.366,169.784 388.366,209.618 358.5,249.5C 389.8,291.141 421.133,332.808 452.5,374.5C 441.618,377.112 431.618,375.279 422.5,369C 396.66,335 370.66,301.167 344.5,267.5C 318.34,301.167 292.34,335 266.5,369C 257.382,375.279 247.382,377.112 236.5,374.5C 267.867,332.808 299.2,291.141 330.5,249.5C 301.221,209.268 271.221,169.601 240.5,130.5 Z"/></g>
</svg>
