<?xml version="1.0" encoding="UTF-8"?>
<!DOCTYPE svg PUBLIC "-//W3C//DTD SVG 1.1//EN" "http://www.w3.org/Graphics/SVG/1.1/DTD/svg11.dtd">
<svg xmlns="http://www.w3.org/2000/svg" version="1.1" width="480px" height="480px" style="shape-rendering:geometricPrecision; text-rendering:geometricPrecision; image-rendering:optimizeQuality; fill-rule:evenodd; clip-rule:evenodd" xmlns:xlink="http://www.w3.org/1999/xlink">
<g><path style="opacity:0.99" fill="#ff9f00" d="M 208.5,127.5 C 207.833,128.5 207.167,129.5 206.5,130.5C 165.113,208.938 123.447,287.271 81.5,365.5C 81.6236,366.107 81.9569,366.44 82.5,366.5C 81.8333,367.833 80.8333,368.833 79.5,369.5C 95.7657,266.475 112.266,163.475 129,60.5C 130.752,47.6461 133.252,34.9794 136.5,22.5C 141.632,18.5302 146.799,18.5302 152,22.5C 170.422,57.009 188.588,91.6756 206.5,126.5C 206.957,127.298 207.624,127.631 208.5,127.5 Z"/></g>
<g><path style="opacity:0.99" fill="#ff8f00" d="M 288.5,166.5 C 288.631,167.239 288.464,167.906 288,168.5C 274.328,181.339 260.828,194.339 247.5,207.5C 234.526,182.22 221.526,156.887 208.5,131.5C 208.043,130.702 207.376,130.369 206.5,130.5C 207.167,129.5 207.833,128.5 208.5,127.5C 215.999,111 224.666,95.1663 234.5,80C 238.575,78.0986 242.408,78.5986 246,81.5C 260.18,109.86 274.347,138.193 288.5,166.5 Z"/></g>
<g><path style="opacity:0.994" fill="#ffc300" d="M 79.5,369.5 C 80.8333,368.833 81.8333,367.833 82.5,366.5C 137.83,313.836 192.83,260.836 247.5,207.5C 260.828,194.339 274.328,181.339 288,168.5C 288.464,167.906 288.631,167.239 288.5,166.5C 307.964,148.204 327.298,129.704 346.5,111C 355.396,107.364 360.896,110.198 363,119.5C 375.167,201.834 387.333,284.167 399.5,366.5C 399.449,368.1 399.116,369.6 398.5,371C 347.833,400.333 297.167,429.667 246.5,459C 240.276,460.061 234.276,459.394 228.5,457C 178.664,427.97 128.997,398.803 79.5,369.5 Z"/></g>
<g><path style="opacity:1" fill="#ff6f00" d="M 206.5,130.5 C 207.376,130.369 208.043,130.702 208.5,131.5C 221.526,156.887 234.526,182.22 247.5,207.5C 192.83,260.836 137.83,313.836 82.5,366.5C 81.9569,366.44 81.6236,366.107 81.5,365.5C 123.447,287.271 165.113,208.938 206.5,130.5 Z"/></g>
</svg>
