<?xml version="1.0" encoding="UTF-8"?>
<!DOCTYPE svg PUBLIC "-//W3C//DTD SVG 1.1//EN" "http://www.w3.org/Graphics/SVG/1.1/DTD/svg11.dtd">
<svg xmlns="http://www.w3.org/2000/svg" version="1.1" width="480px" height="480px" style="shape-rendering:geometricPrecision; text-rendering:geometricPrecision; image-rendering:optimizeQuality; fill-rule:evenodd; clip-rule:evenodd" xmlns:xlink="http://www.w3.org/1999/xlink">
<g><path style="opacity:0.995" fill="#f3501d" d="M 232.5,49.5 C 240.704,48.4623 248.371,49.9623 255.5,54C 312,110.5 368.5,167 425,223.5C 431,234.167 431,244.833 425,255.5C 368.5,312 312,368.5 255.5,425C 244.833,431 234.167,431 223.5,425C 167,368.5 110.5,312 54,255.5C 48,244.833 48,234.167 54,223.5C 92.4721,184.028 131.305,144.861 170.5,106C 171.167,105.333 171.833,105.333 172.5,106C 185.667,119.167 198.833,132.333 212,145.5C 211.216,150.066 210.716,154.733 210.5,159.5C 210.747,172.325 216.747,181.325 228.5,186.5C 229.833,222.167 229.833,257.833 228.5,293.5C 213.654,300.525 207.821,312.191 211,328.5C 217.459,345.316 229.625,352.15 247.5,349C 267.575,340.339 273.408,325.839 265,305.5C 261.528,299.862 256.695,295.862 250.5,293.5C 249.5,258.173 249.167,222.84 249.5,187.5C 250.873,187.343 252.207,187.51 253.5,188C 266.333,200.833 279.167,213.667 292,226.5C 291.149,231.225 290.649,236.058 290.5,241C 293.259,262.74 305.592,272.073 327.5,269C 344.316,262.541 351.15,250.375 348,232.5C 343.49,218.982 334.157,211.982 320,211.5C 315.058,211.649 310.225,212.149 305.5,213C 292.667,200.167 279.833,187.333 267,174.5C 268.347,167.28 268.68,159.946 268,152.5C 264.5,142.333 257.667,135.5 247.5,132C 240.054,131.32 232.72,131.653 225.5,133C 212.333,119.833 199.167,106.667 186,93.5C 185.333,92.8333 185.333,92.1667 186,91.5C 198.5,79 211,66.5 223.5,54C 226.592,52.4541 229.592,50.9541 232.5,49.5 Z"/></g>
</svg>
