<?xml version="1.0" encoding="UTF-8"?>
<!DOCTYPE svg PUBLIC "-//W3C//DTD SVG 1.1//EN" "http://www.w3.org/Graphics/SVG/1.1/DTD/svg11.dtd">
<svg xmlns="http://www.w3.org/2000/svg" version="1.1" width="512px" height="512px" style="shape-rendering:geometricPrecision; text-rendering:geometricPrecision; image-rendering:optimizeQuality; fill-rule:evenodd; clip-rule:evenodd" xmlns:xlink="http://www.w3.org/1999/xlink">
<g><path style="opacity:0.984" fill="#000000" d="M 312.5,455.5 C 313.641,454.661 314.974,453.994 316.5,453.5C 317.666,428.507 317.833,403.507 317,378.5C 315.307,362.613 308.474,349.447 296.5,339C 323.01,333.999 345.51,321.832 364,302.5C 379.108,281.621 383.442,258.621 377,233.5C 372.69,218.541 365.523,205.208 355.5,193.5C 360.419,172.822 360.086,152.156 354.5,131.5C 333.21,133.147 314.876,141.314 299.5,156C 298.271,156.781 296.938,157.281 295.5,157.5C 274.365,151.879 253.032,150.713 231.5,154C 226.124,154.975 220.791,156.142 215.5,157.5C 208.387,152.896 201.387,148.063 194.5,143C 182.762,136.066 170.095,132.233 156.5,131.5C 150.59,152.118 150.59,172.618 156.5,193C 129.729,223.187 124.562,256.687 141,293.5C 150.822,309.323 164.322,320.823 181.5,328C 192.299,332.445 203.299,336.112 214.5,339C 203.46,349.576 196.46,362.41 193.5,377.5C 175.931,384.566 161.097,380.9 149,366.5C 143.949,357.45 137.449,349.617 129.5,343C 123.144,338.988 116.811,338.655 110.5,342C 115.57,346.064 120.404,350.564 125,355.5C 129.322,365.788 133.655,376.121 138,386.5C 151.466,406.623 169.8,412.957 193,405.5C 193.167,421.51 193.667,437.51 194.5,453.5C 196.026,453.994 197.359,454.661 198.5,455.5C 135.9,437.075 91.0663,398.075 64,338.5C 46.2448,295.365 42.5782,251.031 53,205.5C 72.1689,135.663 115.336,87.1632 182.5,60C 259.035,34.6985 328.702,47.0318 391.5,97C 451.573,152.553 474.073,220.72 459,301.5C 441.783,369.046 401.617,417.546 338.5,447C 330.111,450.741 321.444,453.574 312.5,455.5 Z"/></g>
<g><path style="opacity:0.031" fill="#000000" d="M 198.5,455.5 C 199.873,455.343 201.207,455.51 202.5,456C 200.934,456.765 199.601,456.598 198.5,455.5 Z"/></g>
<g><path style="opacity:0.031" fill="#000000" d="M 312.5,455.5 C 311.399,456.598 310.066,456.765 308.5,456C 309.793,455.51 311.127,455.343 312.5,455.5 Z"/></g>
<g><path style="opacity:0.042" fill="#000000" d="M 203.5,457.5 C 204.251,456.427 205.251,456.26 206.5,457C 205.552,457.483 204.552,457.649 203.5,457.5 Z"/></g>
<g><path style="opacity:0.042" fill="#000000" d="M 304.5,457.5 C 305.251,456.427 306.251,456.26 307.5,457C 306.552,457.483 305.552,457.649 304.5,457.5 Z"/></g>
</svg>
