<?xml version="1.0" encoding="UTF-8"?>
<!DOCTYPE svg PUBLIC "-//W3C//DTD SVG 1.1//EN" "http://www.w3.org/Graphics/SVG/1.1/DTD/svg11.dtd">
<svg xmlns="http://www.w3.org/2000/svg" version="1.1" width="480px" height="480px" style="shape-rendering:geometricPrecision; text-rendering:geometricPrecision; image-rendering:optimizeQuality; fill-rule:evenodd; clip-rule:evenodd" xmlns:xlink="http://www.w3.org/1999/xlink">
<g><path style="opacity:0.976" fill="#ff3f81" d="M 236.5,19.5 C 264.323,17.6561 278.99,30.6561 280.5,58.5C 316.167,79.6667 351.833,100.833 387.5,122C 390.491,121.695 393.491,121.028 396.5,120C 428.964,118.8 442.798,134.3 438,166.5C 434.789,175.709 428.789,182.376 420,186.5C 419.333,225.167 419.333,263.833 420,302.5C 435.434,311.373 441.767,324.706 439,342.5C 434.172,360 422.672,369 404.5,369.5C 398.622,369.437 392.955,368.604 387.5,367C 351.833,388.167 316.167,409.333 280.5,430.5C 278.164,460.5 262.164,473 232.5,468C 216.343,460.879 208.343,448.379 208.5,430.5C 172.833,409.333 137.167,388.167 101.5,367C 98.5091,367.305 95.5091,367.972 92.5,369C 60.0356,370.2 46.2023,354.7 51,322.5C 54.2106,313.291 60.2106,306.624 69,302.5C 69.6667,263.833 69.6667,225.167 69,186.5C 53.5659,177.627 47.2326,164.294 50,146.5C 54.8279,129 66.3279,120 84.5,119.5C 90.3785,119.563 96.0451,120.396 101.5,122C 137.167,100.833 172.833,79.6667 208.5,58.5C 208.702,38.6716 218.035,25.6716 236.5,19.5 Z M 213.5,79.5 C 214.239,79.369 214.906,79.5357 215.5,80C 173.287,152.922 131.454,226.089 90,299.5C 89.5,262.835 89.3333,226.168 89.5,189.5C 112.058,184.081 121.891,169.747 119,146.5C 118.521,143.376 117.354,140.543 115.5,138C 148.395,118.726 181.062,99.2257 213.5,79.5 Z M 274.5,79.5 C 307.472,98.9885 340.472,118.489 373.5,138C 365.384,156.201 369.051,171.534 384.5,184C 389.107,186.973 394.107,188.807 399.5,189.5C 399.667,226.168 399.5,262.835 399,299.5C 357.223,226.274 315.723,152.941 274.5,79.5 Z M 234.5,88.5 C 240.834,89.7917 247.167,89.7917 253.5,88.5C 295.99,161.472 337.99,234.805 379.5,308.5C 374.283,314.601 370.95,321.601 369.5,329.5C 286.167,329.5 202.833,329.5 119.5,329.5C 118.05,321.601 114.717,314.601 109.5,308.5C 151.179,235.139 192.845,161.806 234.5,88.5 Z M 116.5,349.5 C 202.308,349.003 287.975,349.503 373.5,351C 339.419,370.789 305.585,390.956 272,411.5C 261.001,400.124 247.834,396.624 232.5,401C 227.154,403.003 222.487,406.003 218.5,410C 217.5,410.667 216.5,410.667 215.5,410C 182.167,390.333 148.833,370.667 115.5,351C 116.056,350.617 116.389,350.117 116.5,349.5 Z"/></g>
</svg>
