<?xml version="1.0" encoding="UTF-8"?>
<!DOCTYPE svg PUBLIC "-//W3C//DTD SVG 1.1//EN" "http://www.w3.org/Graphics/SVG/1.1/DTD/svg11.dtd">
<svg xmlns="http://www.w3.org/2000/svg" version="1.1" width="480px" height="480px" style="shape-rendering:geometricPrecision; text-rendering:geometricPrecision; image-rendering:optimizeQuality; fill-rule:evenodd; clip-rule:evenodd" xmlns:xlink="http://www.w3.org/1999/xlink">
<g><path style="opacity:0.999" fill="#7e57c2" d="M 100.5,29.5 C 193.167,29.3333 285.834,29.5 378.5,30C 394.667,34.1667 404.833,44.3333 409,60.5C 409.667,179.833 409.667,299.167 409,418.5C 404.833,434.667 394.667,444.833 378.5,449C 285.833,449.667 193.167,449.667 100.5,449C 84.3333,444.833 74.1667,434.667 70,418.5C 69.3333,299.167 69.3333,179.833 70,60.5C 74.3489,44.3186 84.5156,33.9852 100.5,29.5 Z"/></g>
<g><path style="opacity:1" fill="#b9a4dd" d="M 293.5,87.5 C 310.671,86.1729 328.005,86.1729 345.5,87.5C 345.376,88.1067 345.043,88.44 344.5,88.5C 327.675,87.5034 310.675,87.1701 293.5,87.5 Z"/></g>
<g><path style="opacity:1" fill="#fefefe" d="M 148.5,86.5 C 164.167,86.5 179.833,86.5 195.5,86.5C 195.5,119.5 195.5,152.5 195.5,185.5C 211.143,180.089 227.143,175.922 243.5,173C 259.896,170.755 276.229,171.088 292.5,174C 311.324,179.822 322.824,192.322 327,211.5C 327.5,271.499 327.667,331.499 327.5,391.5C 312.5,391.5 297.5,391.5 282.5,391.5C 282.667,334.166 282.5,276.832 282,219.5C 279.148,215.647 275.314,213.147 270.5,212C 262.167,211.333 253.833,211.333 245.5,212C 229.941,214.778 214.608,218.445 199.5,223C 182.502,228.943 165.502,234.777 148.5,240.5C 148.5,189.167 148.5,137.833 148.5,86.5 Z"/></g>
<g><path style="opacity:1" fill="#fefefe" d="M 293.5,87.5 C 310.675,87.1701 327.675,87.5034 344.5,88.5C 335.358,109.467 323.692,128.8 309.5,146.5C 292.991,146.83 276.658,146.496 260.5,145.5C 273.524,127.467 284.524,108.134 293.5,87.5 Z"/></g>
<g><path style="opacity:1" fill="#a98fd6" d="M 260.5,145.5 C 276.658,146.496 292.991,146.83 309.5,146.5C 292.995,147.827 276.329,147.827 259.5,146.5C 259.624,145.893 259.957,145.56 260.5,145.5 Z"/></g>
<g><path style="opacity:1" fill="#8f6dca" d="M 150.5,297.5 C 149.167,328.5 149.167,359.5 150.5,390.5C 150.44,391.043 150.107,391.376 149.5,391.5C 148.167,359.833 148.167,328.167 149.5,296.5C 150.107,296.624 150.44,296.957 150.5,297.5 Z"/></g>
<g><path style="opacity:1" fill="#fefefe" d="M 150.5,297.5 C 165.632,313.132 180.965,328.632 196.5,344C 180.965,359.368 165.632,374.868 150.5,390.5C 149.167,359.5 149.167,328.5 150.5,297.5 Z"/></g>
</svg>
