<?xml version="1.0" encoding="UTF-8"?>
<!DOCTYPE svg PUBLIC "-//W3C//DTD SVG 1.1//EN" "http://www.w3.org/Graphics/SVG/1.1/DTD/svg11.dtd">
<svg xmlns="http://www.w3.org/2000/svg" version="1.1" width="480px" height="480px" style="shape-rendering:geometricPrecision; text-rendering:geometricPrecision; image-rendering:optimizeQuality; fill-rule:evenodd; clip-rule:evenodd" xmlns:xlink="http://www.w3.org/1999/xlink">
<g><path style="opacity:0.994" fill="#e65100" d="M 69.5,49.5 C 182.833,49.5 296.167,49.5 409.5,49.5C 399.998,162.855 390.165,276.189 380,389.5C 333.336,403.375 286.503,416.708 239.5,429.5C 192.497,416.708 145.664,403.375 99,389.5C 88.8353,276.189 79.002,162.855 69.5,49.5 Z"/></g>
<g><path style="opacity:1" fill="#ff6d00" d="M 239.5,350.5 C 265.535,342.044 291.535,333.377 317.5,324.5C 320.499,286.19 323.166,247.856 325.5,209.5C 296.833,209.5 268.167,209.5 239.5,209.5C 239.5,196.167 239.5,182.833 239.5,169.5C 269.167,169.5 298.833,169.5 328.5,169.5C 329.235,156.143 330.235,142.81 331.5,129.5C 300.833,129.5 270.167,129.5 239.5,129.5C 239.5,112.833 239.5,96.1667 239.5,79.5C 285.167,79.5 330.833,79.5 376.5,79.5C 368.748,162.775 361.581,246.108 355,329.5C 353.65,341.845 352.15,354.179 350.5,366.5C 313.616,377.074 276.782,387.74 240,398.5C 239.5,382.503 239.333,366.503 239.5,350.5 Z"/></g>
<g><path style="opacity:1" fill="#eeeded" d="M 239.5,129.5 C 239.5,142.833 239.5,156.167 239.5,169.5C 223.153,169.167 206.82,169.501 190.5,170.5C 191.678,183.463 192.678,196.463 193.5,209.5C 208.833,209.5 224.167,209.5 239.5,209.5C 239.5,222.833 239.5,236.167 239.5,249.5C 211.5,249.5 183.5,249.5 155.5,249.5C 152.945,209.512 150.612,169.512 148.5,129.5C 178.833,129.5 209.167,129.5 239.5,129.5 Z"/></g>
<g><path style="opacity:1" fill="#fffefe" d="M 239.5,129.5 C 270.167,129.5 300.833,129.5 331.5,129.5C 330.235,142.81 329.235,156.143 328.5,169.5C 298.833,169.5 269.167,169.5 239.5,169.5C 239.5,156.167 239.5,142.833 239.5,129.5 Z"/></g>
<g><path style="opacity:1" fill="#e65100" d="M 239.5,169.5 C 239.5,182.833 239.5,196.167 239.5,209.5C 224.167,209.5 208.833,209.5 193.5,209.5C 192.678,196.463 191.678,183.463 190.5,170.5C 206.82,169.501 223.153,169.167 239.5,169.5 Z"/></g>
<g><path style="opacity:1" fill="#fffefe" d="M 239.5,209.5 C 268.167,209.5 296.833,209.5 325.5,209.5C 323.166,247.856 320.499,286.19 317.5,324.5C 291.535,333.377 265.535,342.044 239.5,350.5C 239.5,336.5 239.5,322.5 239.5,308.5C 252.88,304.04 266.214,299.373 279.5,294.5C 281.275,279.541 282.608,264.541 283.5,249.5C 268.833,249.5 254.167,249.5 239.5,249.5C 239.5,236.167 239.5,222.833 239.5,209.5 Z"/></g>
<g><path style="opacity:1" fill="#ff6d01" d="M 239.5,249.5 C 254.167,249.5 268.833,249.5 283.5,249.5C 282.608,264.541 281.275,279.541 279.5,294.5C 266.214,299.373 252.88,304.04 239.5,308.5C 239.5,288.833 239.5,269.167 239.5,249.5 Z"/></g>
<g><path style="opacity:1" fill="#eeedec" d="M 239.5,308.5 C 239.5,322.5 239.5,336.5 239.5,350.5C 213.549,341.905 187.549,333.405 161.5,325C 159.257,306.587 157.59,288.087 156.5,269.5C 169.833,269.5 183.167,269.5 196.5,269.5C 196.873,278.117 197.873,286.617 199.5,295C 212.894,299.409 226.227,303.909 239.5,308.5 Z"/></g>
</svg>
