<?xml version="1.0" encoding="UTF-8"?>
<!DOCTYPE svg PUBLIC "-//W3C//DTD SVG 1.1//EN" "http://www.w3.org/Graphics/SVG/1.1/DTD/svg11.dtd">
<svg xmlns="http://www.w3.org/2000/svg" version="1.1" width="480px" height="480px" style="shape-rendering:geometricPrecision; text-rendering:geometricPrecision; image-rendering:optimizeQuality; fill-rule:evenodd; clip-rule:evenodd" xmlns:xlink="http://www.w3.org/1999/xlink">
<g><path style="opacity:0.977" fill="#b61b1b" d="M 251.5,166.5 C 282.92,164.75 313.92,167.584 344.5,175C 380.528,182.787 415.528,193.787 449.5,208C 449.979,213.089 450.145,218.255 450,223.5C 452.333,218.833 454.667,214.167 457,209.5C 466.297,210.726 469.297,215.726 466,224.5C 463.14,230.081 460.474,235.748 458,241.5C 453.26,246.621 447.427,249.788 440.5,251C 408.43,257.684 376.43,264.684 344.5,272C 341.967,273.033 340.301,274.867 339.5,277.5C 341.645,281.6 342.978,285.933 343.5,290.5C 331.829,290.333 320.162,290.5 308.5,291C 296.565,291.398 285.565,294.732 275.5,301C 266.694,306.973 258.028,313.139 249.5,319.5C 248.5,299.845 248.167,280.178 248.5,260.5C 238.828,260.334 229.161,260.5 219.5,261C 213.662,269.662 207.662,278.162 201.5,286.5C 193.821,278.152 186.487,269.485 179.5,260.5C 169.856,259.502 160.19,259.168 150.5,259.5C 150.218,269.523 149.551,279.523 148.5,289.5C 127.024,261.514 98.5244,247.848 63,248.5C 44.9561,248.649 27.2895,251.316 10,256.5C 9.5,256.333 9,256.167 8.5,256C 45.141,219.11 89.141,195.443 140.5,185C 156.852,180.892 173.352,179.059 190,179.5C 196.119,213.095 215.286,235.428 247.5,246.5C 248.696,246.154 248.696,245.654 247.5,245C 220.417,230.061 204.417,207.227 199.5,176.5C 199.404,174.074 200.07,171.907 201.5,170C 204.864,168.66 208.364,167.827 212,167.5C 220.927,168.007 229.761,169.174 238.5,171C 247.501,174.682 256.501,178.015 265.5,181C 259.936,176.938 255.269,172.104 251.5,166.5 Z M 253.5,205.5 C 250.965,204.651 248.465,203.651 246,202.5C 245.5,202.833 245,203.167 244.5,203.5C 246.539,205.899 247.705,208.566 248,211.5C 245.307,209.058 242.473,207.725 239.5,207.5C 242.167,211.5 244.833,215.5 247.5,219.5C 246.091,219.654 244.424,219.821 242.5,220C 244.833,223.667 247.167,227.333 249.5,231C 233.064,222.894 220.897,210.394 213,193.5C 211.787,190.232 211.454,186.899 212,183.5C 213.967,181.73 216.3,180.73 219,180.5C 233.734,184.292 245.234,192.625 253.5,205.5 Z M 316.5,195.5 C 316.735,194.903 317.235,194.57 318,194.5C 337.65,197.964 357.15,201.797 376.5,206C 374.124,208.68 371.124,210.013 367.5,210C 357.204,211.53 346.871,212.197 336.5,212C 332.116,209.283 328.782,205.616 326.5,201C 323.273,198.888 319.94,197.055 316.5,195.5 Z M 364.5,251.5 C 365.873,251.343 367.207,251.51 368.5,252C 354.899,256.144 341.566,260.978 328.5,266.5C 327.123,268.289 326.123,270.289 325.5,272.5C 326.52,274.432 326.687,276.432 326,278.5C 321.331,274.876 318.998,270.209 319,264.5C 320.109,262.185 321.943,260.685 324.5,260C 337.814,256.439 351.148,253.605 364.5,251.5 Z"/></g>
<g><path style="opacity:0.985" fill="#b71b1b" d="M 179.5,299.5 C 186.146,305.812 192.813,312.145 199.5,318.5C 206.152,312.348 212.652,306.015 219,299.5C 219.5,316.163 219.667,332.83 219.5,349.5C 206.167,349.5 192.833,349.5 179.5,349.5C 179.5,332.833 179.5,316.167 179.5,299.5 Z"/></g>
</svg>
