<?xml version="1.0" encoding="UTF-8"?>
<!DOCTYPE svg PUBLIC "-//W3C//DTD SVG 1.1//EN" "http://www.w3.org/Graphics/SVG/1.1/DTD/svg11.dtd">
<svg xmlns="http://www.w3.org/2000/svg" version="1.1" width="480px" height="480px" style="shape-rendering:geometricPrecision; text-rendering:geometricPrecision; image-rendering:optimizeQuality; fill-rule:evenodd; clip-rule:evenodd" xmlns:xlink="http://www.w3.org/1999/xlink">
<g><path style="opacity:1" fill="#4cad4f" d="M 363.5,55.5 C 364.635,57.2132 366.302,57.8799 368.5,57.5C 370.099,57.2322 371.432,57.5655 372.5,58.5C 374.214,59.7384 376.214,60.405 378.5,60.5C 381.912,61.0421 384.912,62.3754 387.5,64.5C 387.973,65.9063 388.973,66.573 390.5,66.5C 390.973,67.9063 391.973,68.573 393.5,68.5C 394.5,68.8333 395.167,69.5 395.5,70.5C 397.5,73.1667 399.833,75.5 402.5,77.5C 402.738,79.4044 403.738,80.7377 405.5,81.5C 405.427,83.0269 406.094,84.0269 407.5,84.5C 408.659,88.1513 410.326,91.4846 412.5,94.5C 414.64,102.86 416.307,111.193 417.5,119.5C 420.63,154.232 420.13,188.899 416,223.5C 400.638,308.813 356.138,373.98 282.5,419C 268.936,427.449 254.603,434.282 239.5,439.5C 176.702,414.539 128.202,372.872 94,314.5C 63.416,255.333 52.5827,192.666 61.5,126.5C 63.0121,121.071 63.6787,115.404 63.5,109.5C 66.7074,83.1198 81.0407,65.9532 106.5,58C 191.962,34.2735 277.629,33.4402 363.5,55.5 Z"/></g>
<g><path style="opacity:0.886" fill="#586e42" d="M 363.5,55.5 C 365.403,55.7959 367.07,56.4625 368.5,57.5C 366.302,57.8799 364.635,57.2132 363.5,55.5 Z"/></g>
<g><path style="opacity:0.988" fill="#557342" d="M 372.5,58.5 C 374.898,58.2594 376.898,58.9261 378.5,60.5C 376.214,60.405 374.214,59.7384 372.5,58.5 Z"/></g>
<g><path style="opacity:0.039" fill="#57553f" d="M 387.5,64.5 C 389.027,64.427 390.027,65.0937 390.5,66.5C 388.973,66.573 387.973,65.9063 387.5,64.5 Z"/></g>
<g><path style="opacity:0.039" fill="#58523e" d="M 390.5,66.5 C 392.027,66.427 393.027,67.0937 393.5,68.5C 391.973,68.573 390.973,67.9063 390.5,66.5 Z"/></g>
<g><path style="opacity:1" fill="#5c4037" d="M 223.5,69.5 C 272.76,69.0371 321.094,75.5371 368.5,89C 379.79,94.6388 385.956,103.805 387,116.5C 391.585,157.448 389.918,198.115 382,238.5C 360.628,316.702 313.128,372.702 239.5,406.5C 146.888,361.987 97.0544,288.32 90,185.5C 88.8909,159.75 89.8909,134.083 93,108.5C 97.5591,95.9392 106.392,88.4392 119.5,86C 153.799,77.3379 188.466,71.8379 223.5,69.5 Z"/></g>
<g><path style="opacity:0.808" fill="#585a3e" d="M 395.5,70.5 C 398.833,71.8333 401.167,74.1667 402.5,77.5C 399.833,75.5 397.5,73.1667 395.5,70.5 Z"/></g>
<g><path style="opacity:1" fill="#5a5e3d" d="M 402.5,77.5 C 404.262,78.2623 405.262,79.5956 405.5,81.5C 403.738,80.7377 402.738,79.4044 402.5,77.5 Z"/></g>
<g><path style="opacity:0.808" fill="#5a543b" d="M 405.5,81.5 C 406.906,81.9731 407.573,82.9731 407.5,84.5C 406.094,84.0269 405.427,83.0269 405.5,81.5 Z"/></g>
<g><path style="opacity:0.39" fill="#5b4a38" d="M 407.5,84.5 C 410.207,87.2466 411.873,90.5799 412.5,94.5C 410.326,91.4846 408.659,88.1513 407.5,84.5 Z"/></g>
<g><path style="opacity:1" fill="#80c683" d="M 240.5,100.5 C 239.169,167.402 239.169,234.402 240.5,301.5C 239.503,301.47 238.836,301.97 238.5,303C 235.59,311.899 232.59,320.732 229.5,329.5C 178.51,284.311 166.01,229.978 192,166.5C 202.933,141.133 218.433,118.966 238.5,100C 239.437,99.3083 240.103,99.475 240.5,100.5 Z"/></g>
<g><path style="opacity:1" fill="#4cae4f" d="M 240.5,100.5 C 281.47,138.457 300.97,185.457 299,241.5C 293.654,277.199 277.154,306.533 249.5,329.5C 246.5,320.167 243.5,310.833 240.5,301.5C 239.169,234.402 239.169,167.402 240.5,100.5 Z"/></g>
<g><path style="opacity:0.507" fill="#5b4538" d="M 412.5,94.5 C 416.192,102.294 417.859,110.627 417.5,119.5C 416.307,111.193 414.64,102.86 412.5,94.5 Z"/></g>
<g><path style="opacity:0.894" fill="#508f48" d="M 63.5,109.5 C 63.6787,115.404 63.0121,121.071 61.5,126.5C 61.596,120.627 62.2627,114.96 63.5,109.5 Z"/></g>
<g><path style="opacity:1" fill="#daecc7" d="M 240.5,301.5 C 243.5,310.833 246.5,320.167 249.5,329.5C 249.5,339.5 249.5,349.5 249.5,359.5C 242.833,359.5 236.167,359.5 229.5,359.5C 229.5,349.5 229.5,339.5 229.5,329.5C 232.59,320.732 235.59,311.899 238.5,303C 238.836,301.97 239.503,301.47 240.5,301.5 Z"/></g>
</svg>
