<?xml version="1.0" encoding="UTF-8"?>
<!DOCTYPE svg PUBLIC "-//W3C//DTD SVG 1.1//EN" "http://www.w3.org/Graphics/SVG/1.1/DTD/svg11.dtd">
<svg xmlns="http://www.w3.org/2000/svg" version="1.1" width="480px" height="480px" style="shape-rendering:geometricPrecision; text-rendering:geometricPrecision; image-rendering:optimizeQuality; fill-rule:evenodd; clip-rule:evenodd" xmlns:xlink="http://www.w3.org/1999/xlink">
<g><path style="opacity:0.934" fill="#00786a" d="M 294.5,109.5 C 305.905,109.704 315.905,113.537 324.5,121C 332.655,121.883 340.655,123.55 348.5,126C 373.279,138.446 392.113,156.946 405,181.5C 410.513,195.527 416.846,209.193 424,222.5C 440.314,228.822 454.648,238.155 467,250.5C 468.879,252.527 470.046,254.86 470.5,257.5C 461.326,258.762 452.326,260.762 443.5,263.5C 444.313,264.814 445.313,265.981 446.5,267C 458.756,273.594 468.756,282.594 476.5,294C 476.167,294.5 475.833,295 475.5,295.5C 467.469,288.481 458.469,282.981 448.5,279C 444.656,276.578 440.99,273.911 437.5,271C 434.667,267.672 432.334,264.005 430.5,260C 434.569,256.857 439.235,254.857 444.5,254C 449.852,253.479 455.185,252.813 460.5,252C 454.167,247.667 447.833,243.333 441.5,239C 433.25,235.623 425.083,232.123 417,228.5C 409.196,213.892 402.196,198.892 396,183.5C 382.776,158.939 363.276,141.439 337.5,131C 331.81,130.531 326.143,129.864 320.5,129C 313.424,122.292 305.091,118.625 295.5,118C 294.643,118.689 293.977,119.522 293.5,120.5C 297.744,128.24 302.577,135.573 308,142.5C 311.783,152.733 316.116,162.733 321,172.5C 322.626,175.128 324.626,177.461 327,179.5C 327.667,181.833 327.667,184.167 327,186.5C 319.429,202.684 319.763,218.684 328,234.5C 329.079,236.394 330.413,236.727 332,235.5C 331.598,225.033 334.931,216.033 342,208.5C 349.433,227.879 360.267,245.046 374.5,260C 373.092,260.315 371.759,259.982 370.5,259C 363.004,252.504 355.837,245.671 349,238.5C 347,234.5 345,230.5 343,226.5C 341.816,231.922 340.316,237.255 338.5,242.5C 334.665,246.246 330.665,246.412 326.5,243C 320.715,236.596 317.215,229.096 316,220.5C 314.418,207.778 315.918,195.444 320.5,183.5C 311.886,171.605 305.386,158.605 301,144.5C 294.702,137.372 289.868,129.372 286.5,120.5C 287.014,115.095 289.68,111.428 294.5,109.5 Z"/></g>
<g><path style="opacity:0.843" fill="#00786a" d="M 324.5,141.5 C 334.556,140.804 337.556,144.971 333.5,154C 332.668,154.688 332.002,154.521 331.5,153.5C 329.648,149.117 327.315,145.117 324.5,141.5 Z"/></g>
<g><path style="opacity:0.973" fill="#00786a" d="M 19.5,283.5 C 18.1976,303.32 18.1976,325.32 19.5,349.5C 13.021,350.491 6.3543,350.824 -0.5,350.5C -0.5,324.167 -0.5,297.833 -0.5,271.5C 1.88348,267.308 5.55015,264.808 10.5,264C 22.0489,260.534 30.5489,264.034 36,274.5C 44.0222,294.075 52.5222,313.408 61.5,332.5C 71.2572,311.984 80.7572,291.317 90,270.5C 96.4165,263.779 104.25,261.612 113.5,264C 118.397,264.566 121.897,267.066 124,271.5C 124.5,297.831 124.667,324.165 124.5,350.5C 117.833,350.5 111.167,350.5 104.5,350.5C 104.667,328.497 104.5,306.497 104,284.5C 94.9405,304.953 85.6071,325.286 76,345.5C 68.3523,351.016 60.1856,351.849 51.5,348C 49,346.833 47.1667,345 46,342.5C 37.6285,322.522 28.7952,302.856 19.5,283.5 Z"/></g>
<g><path style="opacity:0.948" fill="#f57e16" d="M 239.5,263.5 C 258.833,263.5 278.167,263.5 297.5,263.5C 297.5,266.833 297.5,270.167 297.5,273.5C 280.497,273.333 263.497,273.5 246.5,274C 241.434,277.001 239.101,281.501 239.5,287.5C 239.607,290.567 240.107,293.567 241,296.5C 241.833,298.667 243.333,300.167 245.5,301C 256.833,301.333 268.167,301.667 279.5,302C 285.376,302.621 290.542,304.788 295,308.5C 295.862,310.087 296.529,311.754 297,313.5C 303.219,334.545 295.719,346.712 274.5,350C 256.17,350.5 237.836,350.667 219.5,350.5C 219.5,346.833 219.5,343.167 219.5,339.5C 237.17,339.667 254.836,339.5 272.5,339C 274.815,337.891 276.315,336.057 277,333.5C 277.667,328.167 277.667,322.833 277,317.5C 276.417,315.998 275.584,314.665 274.5,313.5C 267.795,311.595 260.962,311.262 254,312.5C 245.183,312.67 236.683,311.17 228.5,308C 221.252,303.578 218.252,297.078 219.5,288.5C 218.807,274.2 225.474,265.866 239.5,263.5 Z"/></g>
<g><path style="opacity:0.956" fill="#f47e16" d="M 320.5,263.5 C 339.503,263.333 358.503,263.5 377.5,264C 385.591,265.759 390.758,270.592 393,278.5C 393.667,297.5 393.667,316.5 393,335.5C 392.297,340.374 389.797,344.04 385.5,346.5C 389.959,350.457 394.292,354.624 398.5,359C 390.833,359.667 383.167,359.667 375.5,359C 372.797,355.962 369.797,353.295 366.5,351C 353.167,350.667 339.833,350.333 326.5,350C 320.251,349.033 314.751,346.533 310,342.5C 308.561,340.725 307.561,338.725 307,336.5C 306.333,316.167 306.333,295.833 307,275.5C 309.833,269.493 314.333,265.493 320.5,263.5 Z M 334.5,273.5 C 344.506,273.334 354.506,273.5 364.5,274C 367.539,275.031 370.039,276.865 372,279.5C 373.126,288.763 373.626,298.096 373.5,307.5C 373.64,316.596 373.14,325.596 372,334.5C 370.786,332.951 369.286,331.785 367.5,331C 359.833,330.333 352.167,330.333 344.5,331C 347.688,333.432 350.688,336.099 353.5,339C 346.5,339.667 339.5,339.667 332.5,339C 329.619,337.749 327.786,335.583 327,332.5C 326.333,315.167 326.333,297.833 327,280.5C 328.632,277.123 331.132,274.79 334.5,273.5 Z"/></g>
<g><path style="opacity:0.952" fill="#f57e16" d="M 479.5,339.5 C 479.5,343.167 479.5,346.833 479.5,350.5C 461.164,350.667 442.83,350.5 424.5,350C 416.833,349.748 410.333,346.915 405,341.5C 404.138,339.913 403.471,338.246 403,336.5C 402.5,312.169 402.333,287.836 402.5,263.5C 409.167,263.5 415.833,263.5 422.5,263.5C 422.02,287.59 422.52,311.59 424,335.5C 425.214,337.049 426.714,338.215 428.5,339C 445.497,339.5 462.497,339.667 479.5,339.5 Z"/></g>
<g><path style="opacity:0.224" fill="#007969" d="M 19.5,283.5 C 19.5,305.5 19.5,327.5 19.5,349.5C 18.1976,325.32 18.1976,303.32 19.5,283.5 Z"/></g>
<g><path style="opacity:0.984" fill="#00786a" d="M 133.5,291.5 C 140.167,291.5 146.833,291.5 153.5,291.5C 153.333,306.17 153.5,320.837 154,335.5C 155.214,337.049 156.714,338.215 158.5,339C 169.495,339.5 180.495,339.667 191.5,339.5C 191.5,323.5 191.5,307.5 191.5,291.5C 198.167,291.5 204.833,291.5 211.5,291.5C 211.667,312.836 211.5,334.169 211,355.5C 209.65,360.185 206.817,363.685 202.5,366C 198.943,367.408 195.276,368.408 191.5,369C 172.17,369.5 152.836,369.667 133.5,369.5C 133.5,366.167 133.5,362.833 133.5,359.5C 149.503,359.667 165.503,359.5 181.5,359C 186.902,359.143 190.235,356.643 191.5,351.5C 177.474,350.889 163.474,350.055 149.5,349C 142.554,347.455 137.387,343.622 134,337.5C 133.5,322.17 133.333,306.837 133.5,291.5 Z"/></g>
</svg>
