<?xml version="1.0" encoding="UTF-8"?>
<!DOCTYPE svg PUBLIC "-//W3C//DTD SVG 1.1//EN" "http://www.w3.org/Graphics/SVG/1.1/DTD/svg11.dtd">
<svg xmlns="http://www.w3.org/2000/svg" version="1.1" width="512px" height="512px" style="shape-rendering:geometricPrecision; text-rendering:geometricPrecision; image-rendering:optimizeQuality; fill-rule:evenodd; clip-rule:evenodd" xmlns:xlink="http://www.w3.org/1999/xlink">
<g><path style="opacity:0.921" fill="#df214e" d="M 294.5,0.5 C 307.213,-1.2241 317.713,2.7759 326,12.5C 330.588,17.5125 331.254,22.8458 328,28.5C 319.418,33.7462 312.085,40.4129 306,48.5C 302.139,56.5238 300.639,64.8571 301.5,73.5C 295.684,65.2316 294.184,56.2316 297,46.5C 307.382,29.9559 305.215,15.4559 290.5,3C 291.858,2.06564 293.192,1.2323 294.5,0.5 Z"/></g>
<g><path style="opacity:0.989" fill="#df214e" d="M 511.5,252.5 C 511.5,270.833 511.5,289.167 511.5,307.5C 505.833,345.335 491.666,379.668 469,410.5C 470.446,390.006 469.113,369.673 465,349.5C 453.884,408.241 423.884,454.575 375,488.5C 374.833,488 374.667,487.5 374.5,487C 391.328,462.512 402.495,435.678 408,406.5C 369.827,468.685 314.327,503.685 241.5,511.5C 240.833,511.5 240.167,511.5 239.5,511.5C 254.447,503.356 268.78,494.189 282.5,484C 295.895,472.273 308.228,459.606 319.5,446C 304.839,451.086 289.839,455.42 274.5,459C 268.567,460.546 262.567,461.213 256.5,461C 301.576,428.465 319.742,384.631 311,329.5C 297.132,388.037 260.632,422.537 201.5,433C 177.853,435.384 155.187,431.717 133.5,422C 129.504,420.337 125.837,418.171 122.5,415.5C 128.164,412.748 134.164,410.914 140.5,410C 120.153,392.959 112.986,371.459 119,345.5C 128.634,326.396 143.468,320.896 163.5,329C 165.195,331.224 166.195,333.724 166.5,336.5C 164.251,342.334 162.584,348.334 161.5,354.5C 164.723,366.885 172.723,374.385 185.5,377C 189.167,377.667 192.833,377.667 196.5,377C 203.65,367.532 208.817,357.032 212,345.5C 213.761,353.366 214.761,361.366 215,369.5C 219.312,365.519 223.312,361.186 227,356.5C 229.975,351.382 232.808,346.215 235.5,341C 246.419,340.877 254.919,345.377 261,354.5C 250.305,293.989 216.138,252.823 158.5,231C 130.754,222.295 102.754,221.295 74.5,228C 70.5583,234.543 65.8916,240.543 60.5,246C 59.552,246.483 58.552,246.649 57.5,246.5C 56.4295,239.173 56.2628,231.839 57,224.5C 54.4401,229.116 51.2735,233.282 47.5,237C 46.552,237.483 45.552,237.649 44.5,237.5C 44.5,231.833 44.5,226.167 44.5,220.5C 30.5321,216.698 21.6988,207.698 18,193.5C 10.4017,189.302 4.23499,183.636 -0.5,176.5C -0.5,171.5 -0.5,166.5 -0.5,161.5C 3.97959,147.853 13.1463,139.187 27,135.5C 46.0554,134.365 62.8887,127.532 77.5,115C 87.1961,104.97 97.1961,95.303 107.5,86C 137.793,66.9662 170.959,58.1328 207,59.5C 241.951,59.6893 275.284,67.0226 307,81.5C 302.827,67.3958 305.66,54.8958 315.5,44C 322.782,39.4407 329.615,34.274 336,28.5C 340.179,22.1307 342.679,15.1307 343.5,7.5C 362.934,15.6246 379.101,27.9579 392,44.5C 417.045,89.2469 410.879,129.08 373.5,164C 358.914,174.756 342.58,181.422 324.5,184C 367.826,192.41 401.992,178.577 427,142.5C 434.266,129.771 438.599,116.104 440,101.5C 479.261,144.412 503.094,194.745 511.5,252.5 Z"/></g>
</svg>
