<?xml version="1.0" encoding="UTF-8"?>
<!DOCTYPE svg PUBLIC "-//W3C//DTD SVG 1.1//EN" "http://www.w3.org/Graphics/SVG/1.1/DTD/svg11.dtd">
<svg xmlns="http://www.w3.org/2000/svg" version="1.1" width="480px" height="480px" style="shape-rendering:geometricPrecision; text-rendering:geometricPrecision; image-rendering:optimizeQuality; fill-rule:evenodd; clip-rule:evenodd" xmlns:xlink="http://www.w3.org/1999/xlink">
<g><path style="opacity:0.985" fill="#36464e" d="M 329.5,119.5 C 333.511,119.502 337.178,120.668 340.5,123C 346.751,126.708 352.917,130.541 359,134.5C 359.667,183.167 359.667,231.833 359,280.5C 342.248,290.127 325.414,299.627 308.5,309C 305.833,309.667 303.167,309.667 300.5,309C 283.586,299.627 266.752,290.127 250,280.5C 249.333,259.833 249.333,239.167 250,218.5C 266.752,208.873 283.586,199.373 300.5,190C 303.167,189.333 305.833,189.333 308.5,190C 315.414,193.707 322.248,197.54 329,201.5C 329.5,174.169 329.667,146.835 329.5,119.5 Z M 303.5,222.5 C 311.851,226.426 320.017,230.759 328,235.5C 329.109,240.056 329.609,244.722 329.5,249.5C 329.609,254.278 329.109,258.944 328,263.5C 320.247,267.96 312.414,272.294 304.5,276.5C 296.586,272.294 288.753,267.96 281,263.5C 279.891,258.944 279.391,254.278 279.5,249.5C 279.391,244.722 279.891,240.056 281,235.5C 288.645,231.266 296.145,226.933 303.5,222.5 Z"/></g>
<g><path style="opacity:0.983" fill="#36464e" d="M -0.5,299.5 C -0.5,272.5 -0.5,245.5 -0.5,218.5C 17.4673,208.018 35.8006,198.351 54.5,189.5C 55.8333,189.667 57.1667,189.833 58.5,190C 75.1667,199.333 91.8333,208.667 108.5,218C 109.495,245.093 109.828,272.259 109.5,299.5C 106.206,299.741 103.206,298.908 100.5,297C 93.5833,292.959 86.75,288.792 80,284.5C 79.6667,268.833 79.3333,253.167 79,237.5C 71.4898,231.65 63.3231,226.65 54.5,222.5C 45.6769,226.65 37.5102,231.65 30,237.5C 29.6667,253.167 29.3333,268.833 29,284.5C 22.25,288.792 15.4167,292.959 8.5,297C 5.79351,298.908 2.79351,299.741 -0.5,299.5 Z"/></g>
<g><path style="opacity:0.976" fill="#36464e" d="M 479.5,218.5 C 479.5,227.167 479.5,235.833 479.5,244.5C 470.441,250.205 461.108,255.539 451.5,260.5C 450.914,260.291 450.414,259.957 450,259.5C 449.937,251.397 449.27,243.397 448,235.5C 440.247,231.04 432.414,226.706 424.5,222.5C 416.586,226.706 408.753,231.04 401,235.5C 399.891,240.056 399.391,244.722 399.5,249.5C 399.391,254.278 399.891,258.944 401,263.5C 417.42,272.627 433.92,281.627 450.5,290.5C 453.049,293.629 452.382,296.129 448.5,298C 440.825,302.672 432.825,306.505 424.5,309.5C 405.913,300.788 387.747,291.121 370,280.5C 369.333,259.833 369.333,239.167 370,218.5C 386.752,208.873 403.586,199.373 420.5,190C 423.167,189.333 425.833,189.333 428.5,190C 445.527,199.512 462.527,209.012 479.5,218.5 Z"/></g>
<g><path style="opacity:1" fill="#4bae4f" d="M 177.5,190.5 C 189.263,210.369 201.263,230.036 213.5,249.5C 218.585,258.673 223.918,267.673 229.5,276.5C 229.919,279.325 228.919,281.491 226.5,283C 210.006,291.746 193.673,300.746 177.5,310C 175.288,310.789 173.288,310.622 171.5,309.5C 159.737,289.631 147.737,269.964 135.5,250.5C 130.415,241.327 125.082,232.327 119.5,223.5C 119.081,220.675 120.081,218.509 122.5,217C 138.994,208.254 155.327,199.254 171.5,190C 173.712,189.211 175.712,189.378 177.5,190.5 Z"/></g>
<g><path style="opacity:0.994" fill="#2e7d32" d="M 177.5,190.5 C 195.017,199.509 212.184,209.176 229,219.5C 229.49,220.793 229.657,222.127 229.5,223.5C 223.805,231.88 218.471,240.546 213.5,249.5C 201.263,230.036 189.263,210.369 177.5,190.5 Z"/></g>
<g><path style="opacity:1" fill="#378e3c" d="M 119.5,223.5 C 125.082,232.327 130.415,241.327 135.5,250.5C 130.529,259.454 125.195,268.12 119.5,276.5C 119.5,258.833 119.5,241.167 119.5,223.5 Z"/></g>
<g><path style="opacity:1" fill="#378e3b" d="M 229.5,223.5 C 229.5,241.167 229.5,258.833 229.5,276.5C 223.918,267.673 218.585,258.673 213.5,249.5C 218.471,240.546 223.805,231.88 229.5,223.5 Z"/></g>
<g><path style="opacity:0.974" fill="#388d3b" d="M 422.5,239.5 C 432.63,239.787 436.463,244.787 434,254.5C 427.667,261.167 421.333,261.167 415,254.5C 414.333,251.167 414.333,247.833 415,244.5C 417.479,242.686 419.979,241.019 422.5,239.5 Z"/></g>
<g><path style="opacity:0.991" fill="#2e7d32" d="M 135.5,250.5 C 147.737,269.964 159.737,289.631 171.5,309.5C 153.983,300.491 136.816,290.824 120,280.5C 119.51,279.207 119.343,277.873 119.5,276.5C 125.195,268.12 130.529,259.454 135.5,250.5 Z"/></g>
</svg>
