<?xml version="1.0" encoding="UTF-8"?>
<!DOCTYPE svg PUBLIC "-//W3C//DTD SVG 1.1//EN" "http://www.w3.org/Graphics/SVG/1.1/DTD/svg11.dtd">
<svg xmlns="http://www.w3.org/2000/svg" version="1.1" width="560px" height="560px" style="shape-rendering:geometricPrecision; text-rendering:geometricPrecision; image-rendering:optimizeQuality; fill-rule:evenodd; clip-rule:evenodd" xmlns:xlink="http://www.w3.org/1999/xlink">
<g><path style="opacity:0.98" fill="#101111" d="M 246.5,5.5 C 247.873,5.34332 249.207,5.50999 250.5,6C 262.347,18.0142 274.347,29.8475 286.5,41.5C 298.653,29.8475 310.653,18.0142 322.5,6C 359.066,14.0583 395.399,23.2249 431.5,33.5C 440.761,69.3774 450.094,105.211 459.5,141C 447.167,153.333 434.833,165.667 422.5,178C 434.833,190.333 447.167,202.667 459.5,215C 450.094,250.789 440.761,286.623 431.5,322.5C 395.384,332.779 359.051,341.946 322.5,350C 310.653,337.986 298.653,326.152 286.5,314.5C 274.347,326.152 262.347,337.986 250.5,350C 213.949,341.946 177.616,332.779 141.5,322.5C 132.323,286.79 122.989,251.124 113.5,215.5C 125.652,202.847 137.986,190.347 150.5,178C 137.986,165.653 125.652,153.153 113.5,140.5C 122.977,105.258 132.144,69.9248 141,34.5C 141.772,33.1509 142.939,32.3176 144.5,32C 178.703,23.4505 212.703,14.6172 246.5,5.5 Z M 236.5,41.5 C 238.199,41.3398 239.866,41.5065 241.5,42C 249.015,49.3477 256.348,56.8477 263.5,64.5C 252.5,76.1667 241.167,87.5 229.5,98.5C 214.681,84.1807 200.014,69.6807 185.5,55C 202.747,50.9401 219.747,46.4401 236.5,41.5 Z M 331.5,41.5 C 350.216,45.6787 368.882,50.1787 387.5,55C 372.986,69.6807 358.319,84.1807 343.5,98.5C 331.833,87.5 320.5,76.1667 309.5,64.5C 316.855,56.8128 324.188,49.1461 331.5,41.5 Z M 163.5,77.5 C 178.299,91.7981 192.965,106.298 207.5,121C 196,132.5 184.5,144 173,155.5C 164.79,147.625 156.956,139.458 149.5,131C 154.249,113.17 158.916,95.3366 163.5,77.5 Z M 408.5,77.5 C 414.095,95.1999 419.095,113.2 423.5,131.5C 415.848,139.652 408.015,147.652 400,155.5C 388.5,144 377,132.5 365.5,121C 380.035,106.632 394.369,92.1319 408.5,77.5 Z M 285.5,87.5 C 297.76,98.0918 309.427,109.425 320.5,121.5C 309.5,133.167 298.167,144.5 286.5,155.5C 274.833,144.5 263.5,133.167 252.5,121.5C 263.521,110.146 274.521,98.8126 285.5,87.5 Z M 229.5,143.5 C 241.298,154.798 252.965,166.298 264.5,178C 253,189.5 241.5,201 230,212.5C 218.5,201 207,189.5 195.5,178C 207.035,166.632 218.369,155.132 229.5,143.5 Z M 342.5,143.5 C 354.298,154.798 365.965,166.298 377.5,178C 366,189.5 354.5,201 343,212.5C 331.5,201 320,189.5 308.5,178C 320.035,166.632 331.369,155.132 342.5,143.5 Z M 172.5,200.5 C 184.298,211.798 195.965,223.298 207.5,235C 193,249.5 178.5,264 164,278.5C 158.856,260.593 154.023,242.593 149.5,224.5C 157.188,216.479 164.855,208.479 172.5,200.5 Z M 285.5,200.5 C 297.76,211.092 309.427,222.425 320.5,234.5C 309.5,246.167 298.167,257.5 286.5,268.5C 274.833,257.5 263.5,246.167 252.5,234.5C 263.521,223.146 274.521,211.813 285.5,200.5 Z M 399.5,200.5 C 407.812,208.146 415.812,216.146 423.5,224.5C 418.977,242.593 414.144,260.593 409,278.5C 394.5,264 380,249.5 365.5,235C 377.035,223.632 388.369,212.132 399.5,200.5 Z M 228.5,257.5 C 240.414,267.91 251.914,278.91 263,290.5C 263.667,291.167 263.667,291.833 263,292.5C 255.555,300.62 247.555,307.953 239,314.5C 221.367,310.217 203.867,305.551 186.5,300.5C 200.521,286.146 214.521,271.813 228.5,257.5 Z M 342.5,257.5 C 357.761,271.093 372.428,285.426 386.5,300.5C 369.947,305.305 353.281,309.805 336.5,314C 334.833,314.667 333.167,314.667 331.5,314C 323.985,306.652 316.652,299.152 309.5,291.5C 320.521,280.146 331.521,268.813 342.5,257.5 Z"/></g>
<g><path style="opacity:0.98" fill="#101111" d="M 24.5,409.5 C 41.8365,409.333 59.1699,409.5 76.5,410C 105.159,411.16 120.492,425.993 122.5,454.5C 120.588,482.579 105.588,497.413 77.5,499C 70.5079,499.5 63.5079,499.666 56.5,499.5C 56.5,512.833 56.5,526.167 56.5,539.5C 45.8333,539.5 35.1667,539.5 24.5,539.5C 24.5,496.167 24.5,452.833 24.5,409.5 Z M 56.5,439.5 C 64.9699,439.12 73.3033,439.953 81.5,442C 89.2479,446.577 91.4145,453.077 88,461.5C 86.3374,463.917 84.1707,465.75 81.5,467C 73.2948,468.967 64.9614,469.801 56.5,469.5C 56.5,459.5 56.5,449.5 56.5,439.5 Z"/></g>
<g><path style="opacity:0.963" fill="#101111" d="M 142.5,409.5 C 153.833,409.5 165.167,409.5 176.5,409.5C 176.5,442.833 176.5,476.167 176.5,509.5C 189.167,509.5 201.833,509.5 214.5,509.5C 214.5,519.5 214.5,529.5 214.5,539.5C 190.5,539.5 166.5,539.5 142.5,539.5C 142.5,496.167 142.5,452.833 142.5,409.5 Z"/></g>
<g><path style="opacity:0.975" fill="#101111" d="M 277.5,409.5 C 286.751,409.182 295.917,409.515 305,410.5C 322.407,453.308 339.241,496.308 355.5,539.5C 343.495,539.667 331.495,539.5 319.5,539C 316.999,532.997 314.999,526.831 313.5,520.5C 298.83,520.333 284.163,520.5 269.5,521C 267.073,526.777 264.74,532.61 262.5,538.5C 250.518,539.499 238.518,539.832 226.5,539.5C 243.105,496.021 260.105,452.687 277.5,409.5 Z M 290.5,453.5 C 291.966,454.347 292.8,455.68 293,457.5C 296.608,469.489 300.108,481.489 303.5,493.5C 295.16,493.666 286.827,493.5 278.5,493C 282.8,479.932 286.8,466.766 290.5,453.5 Z"/></g>
<g><path style="opacity:0.96" fill="#111111" d="M 371.5,409.5 C 382.833,409.5 394.167,409.5 405.5,409.5C 405.5,452.833 405.5,496.167 405.5,539.5C 394.167,539.5 382.833,539.5 371.5,539.5C 371.5,496.167 371.5,452.833 371.5,409.5 Z"/></g>
<g><path style="opacity:0.979" fill="#101212" d="M 432.5,409.5 C 453.195,409.129 473.861,409.629 494.5,411C 521.106,415.606 537.272,431.106 543,457.5C 547.297,479.063 543.63,499.063 532,517.5C 522.168,530 509.335,537.167 493.5,539C 473.169,539.5 452.836,539.667 432.5,539.5C 432.5,496.167 432.5,452.833 432.5,409.5 Z M 466.5,439.5 C 477.744,438.283 488.411,440.117 498.5,445C 507.292,453.197 511.292,463.364 510.5,475.5C 511.882,493.618 503.882,504.785 486.5,509C 479.842,509.5 473.175,509.666 466.5,509.5C 466.5,486.167 466.5,462.833 466.5,439.5 Z"/></g>
</svg>
