<?xml version="1.0" encoding="UTF-8"?>
<!DOCTYPE svg PUBLIC "-//W3C//DTD SVG 1.1//EN" "http://www.w3.org/Graphics/SVG/1.1/DTD/svg11.dtd">
<svg xmlns="http://www.w3.org/2000/svg" version="1.1" width="480px" height="480px" style="shape-rendering:geometricPrecision; text-rendering:geometricPrecision; image-rendering:optimizeQuality; fill-rule:evenodd; clip-rule:evenodd" xmlns:xlink="http://www.w3.org/1999/xlink">
<g><path style="opacity:0.985" fill="#fdfefe" d="M 111.5,28.5 C 140.262,29.8987 167.762,36.5653 194,48.5C 213.366,39.8261 233.532,37.1594 254.5,40.5C 271.038,36.4257 287.704,32.9257 304.5,30C 355.805,24.7543 397.639,41.921 430,81.5C 434.989,89.8004 437.989,98.8004 439,108.5C 440.337,136.483 436.67,163.817 428,190.5C 418.222,222.346 405.055,252.679 388.5,281.5C 389.333,281.833 390.167,282.167 391,282.5C 399.38,281.159 407.713,279.825 416,278.5C 435.443,280.608 443.443,291.274 440,310.5C 437.031,317.475 432.531,323.308 426.5,328C 403.494,344.668 377.827,351.835 349.5,349.5C 349.667,366.17 349.5,382.837 349,399.5C 342.543,440.624 318.876,464.291 278,470.5C 259.062,468.906 244.728,459.906 235,443.5C 226.163,427.989 221.163,411.322 220,393.5C 219.667,380.167 219.333,366.833 219,353.5C 198.945,361.409 178.445,362.576 157.5,357C 151.255,355.461 145.422,352.961 140,349.5C 124.683,361.427 108.517,362.593 91.5,353C 76.1823,339.661 64.6823,323.495 57,304.5C 36.2744,251.543 23.441,196.71 18.5,140C 17.8295,112.168 24.9962,86.6675 40,63.5C 58.5126,40.9938 82.3459,29.3271 111.5,28.5 Z"/></g>
<g><path style="opacity:1" fill="#0577bd" d="M 100.5,49.5 C 126.179,48.5361 150.846,53.0361 174.5,63C 153.619,82.9179 140.119,107.085 134,135.5C 132.131,145.617 130.631,155.784 129.5,166C 132.095,189.331 132.095,212.665 129.5,236C 129.871,261.075 139.871,281.409 159.5,297C 148.167,309.667 136.833,322.333 125.5,335C 118.054,340.494 110.387,340.828 102.5,336C 93.6333,328.78 86.8,319.947 82,309.5C 60.6861,260.585 46.6861,209.585 40,156.5C 36.3772,130.516 40.3772,105.849 52,82.5C 63.4691,64.5207 79.6357,53.5207 100.5,49.5 Z"/></g>
<g><path style="opacity:1" fill="#0677bd" d="M 308.5,49.5 C 349.528,46.4448 383.695,60.1115 411,90.5C 415.875,96.2552 418.542,102.922 419,110.5C 419.782,132.908 417.116,154.908 411,176.5C 400.635,212.894 385.635,247.227 366,279.5C 363.787,276.905 361.953,274.072 360.5,271C 368.477,256.449 371.31,240.949 369,224.5C 365.832,204.519 365.832,184.519 369,164.5C 369.667,156.833 369.667,149.167 369,141.5C 356.343,102.014 331.843,72.3472 295.5,52.5C 299.906,51.2538 304.24,50.2538 308.5,49.5 Z"/></g>
<g><path style="opacity:1" fill="#0477bd" d="M 225.5,59.5 C 285.011,57.7141 325.678,84.3808 347.5,139.5C 330.099,140.446 316.266,147.78 306,161.5C 300.844,171.226 299.178,181.56 301,192.5C 309.383,227.097 324.55,258.263 346.5,286C 337.791,293.915 332.625,303.748 331,315.5C 329.815,341.149 329.148,366.815 329,392.5C 327.029,418.103 314.529,436.27 291.5,447C 276.691,452.619 264.524,449.119 255,436.5C 246.149,422.108 241.149,406.442 240,389.5C 239.667,364.5 239.333,339.5 239,314.5C 236.157,304.636 229.991,297.803 220.5,294C 217.124,292.93 213.79,291.764 210.5,290.5C 220.434,269.87 226.601,248.203 229,225.5C 230.167,205.832 228.167,186.499 223,167.5C 216.981,152.819 206.148,143.985 190.5,141C 178.082,139.386 166.082,140.886 154.5,145.5C 156.639,122.602 165.139,102.269 180,84.5C 192.562,71.3048 207.728,62.9715 225.5,59.5 Z"/></g>
<g><path style="opacity:1" fill="#0677bd" d="M 170.5,160.5 C 176.842,160.334 183.175,160.5 189.5,161C 195.285,162.453 199.619,165.786 202.5,171C 196.611,169.77 190.611,169.436 184.5,170C 179.307,171.579 178.141,174.746 181,179.5C 187.614,190.611 195.948,192.278 206,184.5C 210.168,203.398 210.502,222.398 207,241.5C 201.985,257.379 196.485,273.046 190.5,288.5C 184.722,288.118 179.389,286.285 174.5,283C 161.723,273.952 153.557,261.785 150,246.5C 149.545,230.97 150.045,215.47 151.5,200C 151.574,190.771 150.907,181.605 149.5,172.5C 151.275,169.897 153.608,167.73 156.5,166C 161.159,163.842 165.825,162.009 170.5,160.5 Z"/></g>
<g><path style="opacity:1" fill="#1079be" d="M 344.5,160.5 C 345.833,160.5 347.167,160.5 348.5,160.5C 348.5,163.167 348.5,165.833 348.5,168.5C 345.729,187.207 345.896,205.874 349,224.5C 350.093,233.658 349.426,242.658 347,251.5C 334.368,232.104 325.534,211.104 320.5,188.5C 320.667,187.833 320.833,187.167 321,186.5C 329.056,191.123 336.389,190.123 343,183.5C 347.297,177.38 346.13,172.88 339.5,170C 320.916,172.908 319.916,170.242 336.5,162C 339.063,160.921 341.729,160.421 344.5,160.5 Z"/></g>
<g><path style="opacity:1" fill="#88bddf" d="M 344.5,160.5 C 345.919,159.549 347.585,159.216 349.5,159.5C 349.81,162.713 349.477,165.713 348.5,168.5C 348.5,165.833 348.5,163.167 348.5,160.5C 347.167,160.5 345.833,160.5 344.5,160.5 Z"/></g>
<g><path style="opacity:1" fill="#0c78bd" d="M 362.5,299.5 C 369.043,301.469 375.71,302.803 382.5,303.5C 393.359,302.401 404.193,301.068 415,299.5C 419.433,298.599 421.1,300.265 420,304.5C 413.908,312.581 406.075,318.414 396.5,322C 381.717,327.803 366.383,330.303 350.5,329.5C 349.539,320.011 351.705,311.345 357,303.5C 359.015,302.303 360.849,300.97 362.5,299.5 Z"/></g>
<g><path style="opacity:1" fill="#0c78bd" d="M 193.5,309.5 C 203.296,308.267 211.796,310.933 219,317.5C 219.828,321.871 219.661,326.205 218.5,330.5C 211.874,335.157 204.54,337.99 196.5,339C 182.522,340.562 168.855,339.229 155.5,335C 147.347,329.716 148.014,325.383 157.5,322C 167.874,319.156 178.207,316.156 188.5,313C 190.584,312.303 192.251,311.136 193.5,309.5 Z"/></g>
</svg>
