<?xml version="1.0" encoding="UTF-8"?>
<!DOCTYPE svg PUBLIC "-//W3C//DTD SVG 1.1//EN" "http://www.w3.org/Graphics/SVG/1.1/DTD/svg11.dtd">
<svg xmlns="http://www.w3.org/2000/svg" version="1.1" width="480px" height="480px" style="shape-rendering:geometricPrecision; text-rendering:geometricPrecision; image-rendering:optimizeQuality; fill-rule:evenodd; clip-rule:evenodd" xmlns:xlink="http://www.w3.org/1999/xlink">
<g><path style="opacity:0.987" fill="#4cb6ab" d="M 246.5,-0.5 C 251.167,-0.5 255.833,-0.5 260.5,-0.5C 269.392,2.5567 275.559,8.5567 279,17.5C 333.667,131.5 388.333,245.5 443,359.5C 448.251,378.501 441.418,390.667 422.5,396C 337.775,420.131 253.108,444.464 168.5,469C 156.623,471.6 147.123,468.1 140,458.5C 108.419,411.672 77.0852,364.672 46,317.5C 45.3333,313.5 45.3333,309.5 46,305.5C 108.345,205.153 171.512,105.32 235.5,6C 238.933,3.28937 242.6,1.1227 246.5,-0.5 Z M 260.5,59.5 C 263.272,59.22 265.772,59.8866 268,61.5C 316.715,161.595 364.881,261.928 412.5,362.5C 411.297,368.536 407.63,372.036 401.5,373C 329.494,393.168 257.494,413.335 185.5,433.5C 183.185,432.766 181.352,431.432 180,429.5C 179.746,423.758 180.413,418.091 182,412.5C 206.954,295.394 232.287,178.394 258,61.5C 258.995,60.9341 259.828,60.2674 260.5,59.5 Z"/></g>
</svg>
