<?xml version="1.0" encoding="UTF-8"?>
<!DOCTYPE svg PUBLIC "-//W3C//DTD SVG 1.1//EN" "http://www.w3.org/Graphics/SVG/1.1/DTD/svg11.dtd">
<svg xmlns="http://www.w3.org/2000/svg" version="1.1" width="512px" height="512px" style="shape-rendering:geometricPrecision; text-rendering:geometricPrecision; image-rendering:optimizeQuality; fill-rule:evenodd; clip-rule:evenodd" xmlns:xlink="http://www.w3.org/1999/xlink">
<g><path style="opacity:0.877" fill="#cd140d" d="M 147.5,152.5 C 151.846,152.334 156.179,152.501 160.5,153C 161.5,155.333 162.5,157.667 163.5,160C 161.2,161.109 158.7,161.609 156,161.5C 149.589,162.06 146.755,159.06 147.5,152.5 Z"/></g>
<g><path style="opacity:0.907" fill="#cd140d" d="M 208.5,159.5 C 212.922,160.697 217.256,162.197 221.5,164C 222.61,166.737 222.777,169.571 222,172.5C 221.439,173.022 220.772,173.355 220,173.5C 216.445,172.306 212.945,170.972 209.5,169.5C 208.513,166.232 208.18,162.898 208.5,159.5 Z"/></g>
<g><path style="opacity:0.915" fill="#cd140d" d="M 102.5,164.5 C 105.178,167.332 107.512,170.499 109.5,174C 106,176.167 102.5,178.333 99,180.5C 96.6397,177.64 94.473,174.64 92.5,171.5C 95.5127,168.664 98.846,166.331 102.5,164.5 Z"/></g>
<g><path style="opacity:0.985" fill="#cd140d" d="M 148.5,165.5 C 186.259,163.773 220.926,173.273 252.5,194C 263.732,201.231 274.399,209.231 284.5,218C 282.667,219.833 280.833,221.667 279,223.5C 256.03,206.853 230.364,197.52 202,195.5C 145.715,201.118 114.715,232.118 109,288.5C 107.885,303.304 108.719,317.971 111.5,332.5C 77.1731,333.5 42.8398,333.833 8.5,333.5C 16.6346,281.726 39.6346,237.892 77.5,202C 97.9597,183.438 121.626,171.271 148.5,165.5 Z"/></g>
<g><path style="opacity:0.894" fill="#cd140d" d="M 208.5,200.5 C 212.877,200.577 217.21,201.077 221.5,202C 222.854,205.209 222.687,208.376 221,211.5C 216.961,210.244 212.794,209.577 208.5,209.5C 208.5,206.5 208.5,203.5 208.5,200.5 Z"/></g>
<g><path style="opacity:0.923" fill="#cd140d" d="M 49.5,204.5 C 50.552,204.351 51.552,204.517 52.5,205C 55.0421,207.711 57.7088,210.211 60.5,212.5C 57.1465,216.019 53.9798,219.686 51,223.5C 47.2012,220.703 43.7012,217.536 40.5,214C 43.7044,210.964 46.7044,207.797 49.5,204.5 Z"/></g>
<g><path style="opacity:0.91" fill="#cd140d" d="M 177.5,203.5 C 178.376,203.369 179.043,203.702 179.5,204.5C 180.5,207.167 181.5,209.833 182.5,212.5C 178.254,214.459 173.921,216.125 169.5,217.5C 168.452,214.211 167.952,210.878 168,207.5C 171.291,206.243 174.458,204.91 177.5,203.5 Z"/></g>
<g><path style="opacity:0.898" fill="#cd140d" d="M 142.5,223.5 C 145.518,225.818 147.851,228.818 149.5,232.5C 146.833,235.833 144.167,239.167 141.5,242.5C 139.167,239.167 136.833,235.833 134.5,232.5C 137.189,229.48 139.856,226.48 142.5,223.5 Z"/></g>
<g><path style="opacity:0.969" fill="#cd140d" d="M 161.5,241.5 C 178.503,241.333 195.503,241.5 212.5,242C 228.028,246.214 236.028,256.381 236.5,272.5C 236.793,289.358 228.793,299.525 212.5,303C 221.681,312.014 230.681,321.181 239.5,330.5C 228.181,331.666 216.848,331.832 205.5,331C 198.667,323.5 191.833,316 185,308.5C 184.5,316.159 184.334,323.826 184.5,331.5C 176.833,331.5 169.167,331.5 161.5,331.5C 161.5,301.5 161.5,271.5 161.5,241.5 Z M 184.5,262.5 C 191.841,262.334 199.174,262.5 206.5,263C 213.159,270.374 213.159,277.707 206.5,285C 199.174,285.5 191.841,285.666 184.5,285.5C 184.5,277.833 184.5,270.167 184.5,262.5 Z"/></g>
<g><path style="opacity:0.97" fill="#cd140d" d="M 266.5,242.5 C 278.838,242.333 291.171,242.5 303.5,243C 313.333,244.833 319.167,250.667 321,260.5C 321.5,284.164 321.667,307.831 321.5,331.5C 314.167,331.5 306.833,331.5 299.5,331.5C 299.5,326.167 299.5,320.833 299.5,315.5C 290.833,315.5 282.167,315.5 273.5,315.5C 273.5,320.833 273.5,326.167 273.5,331.5C 265.833,331.5 258.167,331.5 250.5,331.5C 250.333,307.831 250.5,284.164 251,260.5C 253.172,251.765 258.339,245.765 266.5,242.5 Z M 280.5,261.5 C 285.58,261.25 290.58,261.75 295.5,263C 296.333,263.833 297.167,264.667 298,265.5C 299.441,274.058 299.941,282.724 299.5,291.5C 290.833,291.5 282.167,291.5 273.5,291.5C 273.334,282.827 273.5,274.16 274,265.5C 275.792,263.372 277.958,262.039 280.5,261.5 Z"/></g>
<g><path style="opacity:0.987" fill="#cd140d" d="M 335.5,242.5 C 343.5,242.5 351.5,242.5 359.5,242.5C 359.5,272.167 359.5,301.833 359.5,331.5C 351.5,331.5 343.5,331.5 335.5,331.5C 335.5,301.833 335.5,272.167 335.5,242.5 Z"/></g>
<g><path style="opacity:0.985" fill="#ce140d" d="M 372.5,242.5 C 380.5,242.5 388.5,242.5 396.5,242.5C 396.5,265.167 396.5,287.833 396.5,310.5C 408.167,310.5 419.833,310.5 431.5,310.5C 431.5,317.5 431.5,324.5 431.5,331.5C 411.833,331.5 392.167,331.5 372.5,331.5C 372.5,301.833 372.5,272.167 372.5,242.5 Z"/></g>
<g><path style="opacity:0.97" fill="#cd140d" d="M 458.5,242.5 C 473.167,242.5 487.833,242.5 502.5,242.5C 502.5,249.5 502.5,256.5 502.5,263.5C 488.833,263.5 475.167,263.5 461.5,263.5C 461.5,267.833 461.5,272.167 461.5,276.5C 470.173,276.334 478.84,276.5 487.5,277C 497.667,279.167 503.833,285.333 506,295.5C 508.836,307.665 506.003,318.165 497.5,327C 494.618,328.608 491.618,329.941 488.5,331C 473.17,331.5 457.837,331.667 442.5,331.5C 442.5,324.5 442.5,317.5 442.5,310.5C 456.833,310.5 471.167,310.5 485.5,310.5C 485.5,305.833 485.5,301.167 485.5,296.5C 475.42,296.923 465.42,296.423 455.5,295C 444.746,290.005 439.746,281.505 440.5,269.5C 440.246,256.125 446.246,247.125 458.5,242.5 Z"/></g>
<g><path style="opacity:0.904" fill="#cd140d" d="M 119.5,259.5 C 123.714,261.375 127.38,264.042 130.5,267.5C 129.484,272.612 128.151,277.612 126.5,282.5C 122.114,280.114 118.78,276.781 116.5,272.5C 117.347,268.113 118.347,263.78 119.5,259.5 Z"/></g>
<g><path style="opacity:0.93" fill="#cd140d" d="M -0.5,281.5 C -0.5,280.167 -0.5,278.833 -0.5,277.5C 1.56649,273.034 3.89982,268.701 6.5,264.5C 11.669,266.111 16.669,268.111 21.5,270.5C 19.2954,275.741 16.962,280.908 14.5,286C 9.55021,284.631 4.55021,283.131 -0.5,281.5 Z"/></g>
<g><path style="opacity:0.925" fill="#cd140d" d="M 114.5,306.5 C 119.295,307.765 123.962,309.432 128.5,311.5C 129.834,317.171 131.167,322.838 132.5,328.5C 127.01,327.621 121.51,325.955 116,323.5C 114.783,317.899 114.283,312.232 114.5,306.5 Z"/></g>
</svg>
