<?xml version="1.0" encoding="UTF-8"?>
<!DOCTYPE svg PUBLIC "-//W3C//DTD SVG 1.1//EN" "http://www.w3.org/Graphics/SVG/1.1/DTD/svg11.dtd">
<svg xmlns="http://www.w3.org/2000/svg" version="1.1" width="480px" height="480px" style="shape-rendering:geometricPrecision; text-rendering:geometricPrecision; image-rendering:optimizeQuality; fill-rule:evenodd; clip-rule:evenodd" xmlns:xlink="http://www.w3.org/1999/xlink">
<g><path style="opacity:0.961" fill="#80dee9" d="M 142.5,33.5 C 157.842,32.8355 172.509,35.6688 186.5,42C 205.89,51.3543 223.557,63.1877 239.5,77.5C 256.835,62.0146 276.169,49.5146 297.5,40C 312.77,33.4827 328.437,32.1494 344.5,36C 359.511,41.0113 370.011,50.8446 376,65.5C 383.047,85.9364 385.38,106.936 383,128.5C 382.027,138.636 380.694,148.636 379,158.5C 404.104,166.632 426.938,178.799 447.5,195C 476.833,224.667 476.833,254.333 447.5,284C 427.258,300.289 404.591,312.123 379.5,319.5C 384.414,342.294 385.914,365.294 384,388.5C 374.238,440.804 344.405,457.304 294.5,438C 274.449,428.316 256.116,416.149 239.5,401.5C 221.307,418.437 200.641,431.603 177.5,441C 128.035,453.667 100.535,434.5 95,383.5C 93.6544,361.958 95.1544,340.625 99.5,319.5C 74.4085,312.123 51.7419,300.289 31.5,284C 2.16667,254.333 2.16667,224.667 31.5,195C 51.7419,178.711 74.4085,166.877 99.5,159.5C 96.4484,143.317 94.7817,126.984 94.5,110.5C 93.6432,91.2747 97.8099,73.2747 107,56.5C 115.564,43.7656 127.398,36.0989 142.5,33.5 Z M 327.5,53.5 C 344.821,54.6517 355.654,63.6517 360,80.5C 362.801,90.3071 363.968,100.307 363.5,110.5C 363.354,124.622 362.021,138.622 359.5,152.5C 338.697,147.922 317.697,144.422 296.5,142C 283.399,125.063 269.732,108.563 255.5,92.5C 272.245,75.7853 291.911,63.6186 314.5,56C 318.965,55.1259 323.298,54.2926 327.5,53.5 Z M 142.5,54.5 C 153.976,53.5622 164.976,55.3955 175.5,60C 193.471,68.6501 209.804,79.6501 224.5,93C 209.377,108.45 195.377,124.783 182.5,142C 161.303,144.422 140.303,147.922 119.5,152.5C 117.068,138.611 115.735,124.611 115.5,110.5C 114.459,93.8498 118.292,78.5164 127,64.5C 131.308,59.6647 136.475,56.3314 142.5,54.5 Z M 238.5,108.5 C 243.406,111.898 247.906,115.898 252,120.5C 256.79,126.959 261.957,133.126 267.5,139C 249.167,139.667 230.833,139.667 212.5,139C 220.627,128.373 229.294,118.206 238.5,108.5 Z M 236.5,159.5 C 252.54,159.942 268.54,160.942 284.5,162.5C 300.797,186.335 315.297,211.335 328,237.5C 328.667,238.833 328.667,240.167 328,241.5C 315.159,267.969 300.326,293.135 283.5,317C 253.807,320.384 224.141,320.217 194.5,316.5C 178.203,292.665 163.703,267.665 151,241.5C 150.333,240.167 150.333,238.833 151,237.5C 163.841,211.031 178.674,185.865 195.5,162C 209.315,161.048 222.982,160.215 236.5,159.5 Z M 159.5,165.5 C 161.857,165.337 164.19,165.503 166.5,166C 156.449,181.261 147.283,197.094 139,213.5C 133.194,200.247 128.694,186.581 125.5,172.5C 137.003,170.4 148.336,168.067 159.5,165.5 Z M 312.5,166.5 C 314.628,165.371 316.961,165.204 319.5,166C 330.91,167.853 342.243,170.02 353.5,172.5C 350.306,186.581 345.806,200.247 340,213.5C 331.816,197.113 322.649,181.447 312.5,166.5 Z M 373.5,178.5 C 397.1,185.881 418.267,197.547 437,213.5C 452.599,231.452 452.266,249.118 436,266.5C 418.266,281.372 398.266,292.372 376,299.5C 375.228,299.355 374.561,299.022 374,298.5C 368.218,278.155 361.052,258.321 352.5,239C 360.998,219.339 367.998,199.172 373.5,178.5 Z M 101.5,179.5 C 102.833,179.5 104.167,179.5 105.5,179.5C 111.083,199.666 118.083,219.333 126.5,238.5C 118.445,258.163 111.278,278.163 105,298.5C 81.3622,292.845 60.3622,281.845 42,265.5C 26.0029,246.613 26.8362,228.446 44.5,211C 61.7914,197.355 80.7914,186.855 101.5,179.5 Z M 138.5,265.5 C 139.458,265.953 140.292,266.619 141,267.5C 149.494,283.508 158.161,299.175 167,314.5C 153.182,311.903 139.349,309.237 125.5,306.5C 128.83,292.512 133.163,278.845 138.5,265.5 Z M 312.5,313.5 C 321.908,297.69 331.074,281.69 340,265.5C 345.806,278.753 350.306,292.419 353.5,306.5C 339.942,309.478 326.276,311.812 312.5,313.5 Z M 119.5,326.5 C 140.303,331.078 161.303,334.578 182.5,337C 195.377,354.217 209.377,370.55 224.5,386C 209.383,400.109 192.383,411.443 173.5,420C 139.252,432.135 120.085,419.969 116,383.5C 114.772,364.345 115.938,345.345 119.5,326.5 Z M 354.5,326.5 C 356.167,326.5 357.833,326.5 359.5,326.5C 363.062,345.343 364.228,364.343 363,383.5C 362.026,397.271 356.859,409.104 347.5,419C 341.802,422.954 335.468,424.788 328.5,424.5C 314.419,423.798 301.419,419.631 289.5,412C 276.987,404.489 265.321,395.823 254.5,386C 269.623,370.55 283.623,354.217 296.5,337C 316.258,335.098 335.592,331.598 354.5,326.5 Z M 211.5,340.5 C 229.662,339.338 247.995,339.171 266.5,340C 258.4,350.935 249.4,361.102 239.5,370.5C 229.778,360.781 220.445,350.781 211.5,340.5 Z"/></g>
<g><path style="opacity:0.979" fill="#80dee9" d="M 230.5,199.5 C 253.329,196.547 269.163,205.547 278,226.5C 283.718,250.897 275.218,268.064 252.5,278C 228.103,283.718 210.936,275.218 201,252.5C 195.424,225.977 205.257,208.31 230.5,199.5 Z"/></g>
</svg>
