<?xml version="1.0" encoding="UTF-8"?>
<!DOCTYPE svg PUBLIC "-//W3C//DTD SVG 1.1//EN" "http://www.w3.org/Graphics/SVG/1.1/DTD/svg11.dtd">
<svg xmlns="http://www.w3.org/2000/svg" version="1.1" width="480px" height="480px" style="shape-rendering:geometricPrecision; text-rendering:geometricPrecision; image-rendering:optimizeQuality; fill-rule:evenodd; clip-rule:evenodd" xmlns:xlink="http://www.w3.org/1999/xlink">
<g><path style="opacity:0.963" fill="#4e7ab5" d="M 479.5,229.5 C 479.5,236.167 479.5,242.833 479.5,249.5C 475.062,265.853 466.395,279.687 453.5,291C 434.447,305.697 413.447,317.031 390.5,325C 395.137,345.552 396.637,366.385 395,387.5C 393.716,405.361 387.716,421.361 377,435.5C 359.42,453.525 338.253,459.691 313.5,454C 298.122,450.477 283.789,444.477 270.5,436C 259.747,429.08 249.414,421.58 239.5,413.5C 219.273,431.287 196.273,444.454 170.5,453C 125.394,462.534 97.227,445.034 86,400.5C 84.0579,390.601 83.2245,380.601 83.5,370.5C 83.7542,355.058 84.9209,339.724 87,324.5C 65.129,316.651 44.9623,305.817 26.5,292C 13.0301,280.535 4.03009,266.368 -0.5,249.5C -0.5,242.833 -0.5,236.167 -0.5,229.5C 4.05908,212.073 13.3924,197.573 27.5,186C 45.6703,172.081 65.6703,161.581 87.5,154.5C 83.8556,133.314 82.689,111.981 84,90.5C 90.4953,38.6953 119.329,17.1953 170.5,26C 196.273,34.5464 219.273,47.713 239.5,65.5C 258.856,48.3486 280.856,35.5152 305.5,27C 351.756,15.5341 380.923,32.7007 393,78.5C 395.417,94.4115 396.083,110.412 395,126.5C 393.879,135.849 392.712,145.182 391.5,154.5C 413.33,161.581 433.33,172.081 451.5,186C 465.608,197.573 474.941,212.073 479.5,229.5 Z M 147.5,59.5 C 162.596,61.5414 176.596,66.7081 189.5,75C 197.701,79.9348 205.368,85.6015 212.5,92C 199.894,105.101 188.227,118.934 177.5,133.5C 159.072,136.319 140.738,139.652 122.5,143.5C 118.03,122.03 118.53,100.696 124,79.5C 127.831,67.816 135.664,61.1493 147.5,59.5 Z M 322.5,60.5 C 337.716,57.6881 348.216,63.3548 354,77.5C 361.254,99.1445 362.42,121.144 357.5,143.5C 338.903,139.781 320.236,136.447 301.5,133.5C 290.773,118.934 279.106,105.101 266.5,92C 283.019,77.5767 301.685,67.0767 322.5,60.5 Z M 238.5,117.5 C 239.239,117.369 239.906,117.536 240.5,118C 243.981,122.315 247.647,126.482 251.5,130.5C 243.5,131.833 235.5,131.833 227.5,130.5C 231.565,126.441 235.232,122.107 238.5,117.5 Z M 210.5,167.5 C 234.19,167.136 257.857,167.636 281.5,169C 296.893,190.937 310.393,214.103 322,238.5C 311.123,263.58 297.623,287.246 281.5,309.5C 253.526,311.999 225.526,312.166 197.5,310C 181.926,287.697 168.26,264.197 156.5,239.5C 168.273,214.771 181.94,191.271 197.5,169C 202.019,168.825 206.353,168.325 210.5,167.5 Z M 146.5,175.5 C 147.376,175.369 148.043,175.702 148.5,176.5C 144.833,182.5 141.167,188.5 137.5,194.5C 135.211,189.805 133.211,184.972 131.5,180C 136.515,178.333 141.515,176.833 146.5,175.5 Z M 330.5,175.5 C 336.142,176.628 341.809,177.628 347.5,178.5C 346.259,184.326 344.425,189.993 342,195.5C 337.89,188.942 334.057,182.275 330.5,175.5 Z M 96.5,189.5 C 102.219,206.294 108.553,222.961 115.5,239.5C 108.362,255.772 102.362,272.439 97.5,289.5C 75.1488,283.413 55.9821,272.08 40,255.5C 33.1138,246.07 32.7804,236.404 39,226.5C 48.6772,214.575 60.5106,205.408 74.5,199C 81.8108,195.517 89.1441,192.35 96.5,189.5 Z M 381.5,189.5 C 403.851,195.587 423.018,206.92 439,223.5C 445.886,232.93 446.22,242.596 440,252.5C 433.366,261.471 425.199,268.638 415.5,274C 404.618,279.859 393.451,285.026 382,289.5C 376.665,272.501 370.498,255.835 363.5,239.5C 370.631,223.238 376.631,206.571 381.5,189.5 Z M 136.5,284.5 C 138.074,284.937 139.241,285.937 140,287.5C 142.833,292.5 145.667,297.5 148.5,302.5C 142.767,302.69 137.1,301.69 131.5,299.5C 133.372,294.55 135.039,289.55 136.5,284.5 Z M 340.5,284.5 C 341.497,284.47 342.164,284.97 342.5,286C 344.35,290.714 345.684,295.547 346.5,300.5C 341.408,301.023 336.408,302.023 331.5,303.5C 331.167,303.167 330.833,302.833 330.5,302.5C 334.291,296.721 337.624,290.721 340.5,284.5 Z M 122.5,334.5 C 140.395,338.205 158.395,341.372 176.5,344C 187.371,359.211 199.371,373.544 212.5,387C 196.427,401.207 178.094,411.54 157.5,418C 141.917,421.626 131.084,416.126 125,401.5C 120.98,390.531 119.147,379.197 119.5,367.5C 119.694,356.419 120.694,345.419 122.5,334.5 Z M 353.5,334.5 C 354.496,334.414 355.329,334.748 356,335.5C 360.934,356.94 360.6,378.274 355,399.5C 351.199,411.985 342.866,418.318 330,418.5C 315.322,417.051 301.822,412.218 289.5,404C 281.299,399.065 273.632,393.399 266.5,387C 279.629,373.544 291.629,359.211 302.5,344C 319.789,341.677 336.789,338.51 353.5,334.5 Z M 226.5,347.5 C 234.99,346.343 243.657,346.176 252.5,347C 248.323,352.008 243.99,356.841 239.5,361.5C 235.145,356.813 230.812,352.146 226.5,347.5 Z"/></g>
<g><path style="opacity:1" fill="#89b5ee" d="M 138.5,35.5 C 154.231,34.5075 169.231,37.3409 183.5,44C 203.953,54.2956 222.62,67.1289 239.5,82.5C 256.778,66.4009 276.112,53.2343 297.5,43C 346.08,25.0357 374.58,41.5357 383,92.5C 384.289,115.883 382.289,138.883 377,161.5C 401.547,169.189 424.047,180.689 444.5,196C 474.812,224.303 475.146,252.97 445.5,282C 425.2,297.984 402.533,309.484 377.5,316.5C 380.759,333.679 382.759,351.012 383.5,368.5C 384.46,389.562 379.293,408.896 368,426.5C 353.533,441.497 336.033,446.663 315.5,442C 293.679,435.591 274.012,425.258 256.5,411C 250.98,405.979 245.314,401.146 239.5,396.5C 221.538,413.487 201.205,426.987 178.5,437C 163.227,443.754 147.561,445.087 131.5,441C 117.297,435.129 107.463,424.962 102,410.5C 99.9559,404.617 98.2892,398.617 97,392.5C 95.6551,379.189 95.3218,365.856 96,352.5C 97.5693,340.759 99.2359,329.093 101,317.5C 76.2829,309.615 53.7829,297.782 33.5,282C 3.85654,252.989 4.18987,224.322 34.5,196C 54.6746,180.922 76.8413,169.422 101,161.5C 98.1445,143.16 96.3112,124.66 95.5,106C 94.9242,89.5409 98.4242,74.0409 106,59.5C 113.786,47.2077 124.62,39.2077 138.5,35.5 Z M 147.5,59.5 C 135.664,61.1493 127.831,67.816 124,79.5C 118.53,100.696 118.03,122.03 122.5,143.5C 140.738,139.652 159.072,136.319 177.5,133.5C 188.227,118.934 199.894,105.101 212.5,92C 205.368,85.6015 197.701,79.9348 189.5,75C 176.596,66.7081 162.596,61.5414 147.5,59.5 Z M 322.5,60.5 C 301.685,67.0767 283.019,77.5767 266.5,92C 279.106,105.101 290.773,118.934 301.5,133.5C 320.236,136.447 338.903,139.781 357.5,143.5C 362.42,121.144 361.254,99.1445 354,77.5C 348.216,63.3548 337.716,57.6881 322.5,60.5 Z M 238.5,117.5 C 235.232,122.107 231.565,126.441 227.5,130.5C 235.5,131.833 243.5,131.833 251.5,130.5C 247.647,126.482 243.981,122.315 240.5,118C 239.906,117.536 239.239,117.369 238.5,117.5 Z M 210.5,167.5 C 206.353,168.325 202.019,168.825 197.5,169C 181.94,191.271 168.273,214.771 156.5,239.5C 168.26,264.197 181.926,287.697 197.5,310C 225.526,312.166 253.526,311.999 281.5,309.5C 297.623,287.246 311.123,263.58 322,238.5C 310.393,214.103 296.893,190.937 281.5,169C 257.857,167.636 234.19,167.136 210.5,167.5 Z M 146.5,175.5 C 141.515,176.833 136.515,178.333 131.5,180C 133.211,184.972 135.211,189.805 137.5,194.5C 141.167,188.5 144.833,182.5 148.5,176.5C 148.043,175.702 147.376,175.369 146.5,175.5 Z M 330.5,175.5 C 334.057,182.275 337.89,188.942 342,195.5C 344.425,189.993 346.259,184.326 347.5,178.5C 341.809,177.628 336.142,176.628 330.5,175.5 Z M 96.5,189.5 C 89.1441,192.35 81.8108,195.517 74.5,199C 60.5106,205.408 48.6772,214.575 39,226.5C 32.7804,236.404 33.1138,246.07 40,255.5C 55.9821,272.08 75.1488,283.413 97.5,289.5C 102.362,272.439 108.362,255.772 115.5,239.5C 108.553,222.961 102.219,206.294 96.5,189.5 Z M 381.5,189.5 C 376.631,206.571 370.631,223.238 363.5,239.5C 370.498,255.835 376.665,272.501 382,289.5C 393.451,285.026 404.618,279.859 415.5,274C 425.199,268.638 433.366,261.471 440,252.5C 446.22,242.596 445.886,232.93 439,223.5C 423.018,206.92 403.851,195.587 381.5,189.5 Z M 136.5,284.5 C 135.039,289.55 133.372,294.55 131.5,299.5C 137.1,301.69 142.767,302.69 148.5,302.5C 145.667,297.5 142.833,292.5 140,287.5C 139.241,285.937 138.074,284.937 136.5,284.5 Z M 340.5,284.5 C 337.624,290.721 334.291,296.721 330.5,302.5C 330.833,302.833 331.167,303.167 331.5,303.5C 336.408,302.023 341.408,301.023 346.5,300.5C 345.684,295.547 344.35,290.714 342.5,286C 342.164,284.97 341.497,284.47 340.5,284.5 Z M 122.5,334.5 C 120.694,345.419 119.694,356.419 119.5,367.5C 119.147,379.197 120.98,390.531 125,401.5C 131.084,416.126 141.917,421.626 157.5,418C 178.094,411.54 196.427,401.207 212.5,387C 199.371,373.544 187.371,359.211 176.5,344C 158.395,341.372 140.395,338.205 122.5,334.5 Z M 353.5,334.5 C 336.789,338.51 319.789,341.677 302.5,344C 291.629,359.211 279.629,373.544 266.5,387C 273.632,393.399 281.299,399.065 289.5,404C 301.822,412.218 315.322,417.051 330,418.5C 342.866,418.318 351.199,411.985 355,399.5C 360.6,378.274 360.934,356.94 356,335.5C 355.329,334.748 354.496,334.414 353.5,334.5 Z M 226.5,347.5 C 230.812,352.146 235.145,356.813 239.5,361.5C 243.99,356.841 248.323,352.008 252.5,347C 243.657,346.176 234.99,346.343 226.5,347.5 Z"/></g>
<g><path style="opacity:0.967" fill="#4e7ab5" d="M 140.5,47.5 C 153.007,46.8964 165.007,49.063 176.5,54C 196.422,63.599 214.422,75.9323 230.5,91C 213.667,107.824 198.334,125.824 184.5,145C 160.57,147.686 136.904,151.853 113.5,157.5C 111.018,145.276 109.185,132.942 108,120.5C 106.073,103.327 108.073,86.6606 114,70.5C 119.359,58.6288 128.192,50.9621 140.5,47.5 Z M 147.5,59.5 C 135.664,61.1493 127.831,67.816 124,79.5C 118.53,100.696 118.03,122.03 122.5,143.5C 140.738,139.652 159.072,136.319 177.5,133.5C 188.227,118.934 199.894,105.101 212.5,92C 205.368,85.6015 197.701,79.9348 189.5,75C 176.596,66.7081 162.596,61.5414 147.5,59.5 Z"/></g>
<g><path style="opacity:0.966" fill="#4e7ab5" d="M 321.5,47.5 C 344.091,45.0349 359.258,54.3683 367,75.5C 371.844,93.2348 372.844,111.235 370,129.5C 368.972,138.928 367.472,148.261 365.5,157.5C 342.021,152.371 318.354,148.205 294.5,145C 280.666,125.824 265.333,107.824 248.5,91C 269.183,70.3273 293.516,55.8273 321.5,47.5 Z M 322.5,60.5 C 301.685,67.0767 283.019,77.5767 266.5,92C 279.106,105.101 290.773,118.934 301.5,133.5C 320.236,136.447 338.903,139.781 357.5,143.5C 362.42,121.144 361.254,99.1445 354,77.5C 348.216,63.3548 337.716,57.6881 322.5,60.5 Z"/></g>
<g><path style="opacity:0.988" fill="#4e7ab5" d="M 238.5,99.5 C 244.724,105.221 250.891,111.221 257,117.5C 264.022,125.688 270.856,134.021 277.5,142.5C 252.148,142.61 226.815,142.61 201.5,142.5C 213.505,127.833 225.838,113.499 238.5,99.5 Z M 238.5,117.5 C 235.232,122.107 231.565,126.441 227.5,130.5C 235.5,131.833 243.5,131.833 251.5,130.5C 247.647,126.482 243.981,122.315 240.5,118C 239.906,117.536 239.239,117.369 238.5,117.5 Z"/></g>
<g><path style="opacity:0.963" fill="#4e7ab5" d="M 212.5,154.5 C 237.545,154.065 262.545,154.898 287.5,157C 306.729,182.601 323.063,210.101 336.5,239.5C 323.063,268.899 306.729,296.399 287.5,322C 255.129,325.4 222.796,325.233 190.5,321.5C 171.978,295.809 155.978,268.476 142.5,239.5C 155.978,210.524 171.978,183.191 190.5,157.5C 197.978,156.493 205.311,155.493 212.5,154.5 Z M 210.5,167.5 C 206.353,168.325 202.019,168.825 197.5,169C 181.94,191.271 168.273,214.771 156.5,239.5C 168.26,264.197 181.926,287.697 197.5,310C 225.526,312.166 253.526,311.999 281.5,309.5C 297.623,287.246 311.123,263.58 322,238.5C 310.393,214.103 296.893,190.937 281.5,169C 257.857,167.636 234.19,167.136 210.5,167.5 Z"/></g>
<g><path style="opacity:0.98" fill="#4e7ab5" d="M 170.5,158.5 C 171.978,158.238 173.311,158.571 174.5,159.5C 160.273,180.254 147.439,201.92 136,224.5C 128.331,206.659 122.164,188.326 117.5,169.5C 135.134,165.174 152.801,161.507 170.5,158.5 Z M 146.5,175.5 C 141.515,176.833 136.515,178.333 131.5,180C 133.211,184.972 135.211,189.805 137.5,194.5C 141.167,188.5 144.833,182.5 148.5,176.5C 148.043,175.702 147.376,175.369 146.5,175.5 Z"/></g>
<g><path style="opacity:0.98" fill="#4e7ab5" d="M 304.5,158.5 C 323.704,161.124 342.704,164.791 361.5,169.5C 356.836,188.326 350.669,206.659 343,224.5C 331.109,201.817 318.276,179.817 304.5,158.5 Z M 330.5,175.5 C 334.057,182.275 337.89,188.942 342,195.5C 344.425,189.993 346.259,184.326 347.5,178.5C 341.809,177.628 336.142,176.628 330.5,175.5 Z"/></g>
<g><path style="opacity:0.966" fill="#4e7ab5" d="M 103.5,173.5 C 104.75,173.577 105.583,174.244 106,175.5C 112.146,197.437 119.98,218.771 129.5,239.5C 119.586,260.909 111.253,282.909 104.5,305.5C 81.4922,298.331 60.4922,287.498 41.5,273C 28.3946,262.624 22.5612,249.124 24,232.5C 28.5472,219.583 36.3805,209.083 47.5,201C 65.028,189.402 83.6947,180.236 103.5,173.5 Z M 96.5,189.5 C 89.1441,192.35 81.8108,195.517 74.5,199C 60.5106,205.408 48.6772,214.575 39,226.5C 32.7804,236.404 33.1138,246.07 40,255.5C 55.9821,272.08 75.1488,283.413 97.5,289.5C 102.362,272.439 108.362,255.772 115.5,239.5C 108.553,222.961 102.219,206.294 96.5,189.5 Z"/></g>
<g><path style="opacity:0.965" fill="#4e7ab5" d="M 373.5,173.5 C 396.43,180.298 417.43,190.798 436.5,205C 461.729,227.951 461.729,250.951 436.5,274C 417.673,287.914 397.007,298.414 374.5,305.5C 367.747,282.909 359.414,260.909 349.5,239.5C 359.286,218.143 367.286,196.143 373.5,173.5 Z M 381.5,189.5 C 376.631,206.571 370.631,223.238 363.5,239.5C 370.498,255.835 376.665,272.501 382,289.5C 393.451,285.026 404.618,279.859 415.5,274C 425.199,268.638 433.366,261.471 440,252.5C 446.22,242.596 445.886,232.93 439,223.5C 423.018,206.92 403.851,195.587 381.5,189.5 Z"/></g>
<g><path style="opacity:0.963" fill="#4e7ab5" d="M 229.5,191.5 C 259.122,188.55 278.289,201.216 287,229.5C 290.421,259.18 277.921,278.346 249.5,287C 219.82,290.421 200.654,277.921 192,249.5C 188.699,219.735 201.199,200.402 229.5,191.5 Z"/></g>
<g><path style="opacity:1" fill="#8ab6ef" d="M 231.5,203.5 C 253.287,201.637 267.787,210.97 275,231.5C 277.303,251.729 269.137,265.896 250.5,274C 229.114,278.224 213.948,270.39 205,250.5C 200.471,227.216 209.304,211.549 231.5,203.5 Z"/></g>
<g><path style="opacity:0.98" fill="#4f7ab6" d="M 135.5,254.5 C 143.639,268.771 151.806,283.104 160,297.5C 164.637,304.969 169.47,312.302 174.5,319.5C 173.833,319.833 173.167,320.167 172.5,320.5C 153.979,317.729 135.646,314.063 117.5,309.5C 121.892,290.656 127.892,272.323 135.5,254.5 Z M 136.5,284.5 C 135.039,289.55 133.372,294.55 131.5,299.5C 137.1,301.69 142.767,302.69 148.5,302.5C 145.667,297.5 142.833,292.5 140,287.5C 139.241,285.937 138.074,284.937 136.5,284.5 Z"/></g>
<g><path style="opacity:0.982" fill="#4e7ab5" d="M 342.5,254.5 C 350.999,271.994 357.332,290.328 361.5,309.5C 344.159,313.53 326.659,316.863 309,319.5C 307.833,319.167 306.667,318.833 305.5,318.5C 319.361,298.12 331.694,276.787 342.5,254.5 Z M 340.5,284.5 C 337.624,290.721 334.291,296.721 330.5,302.5C 330.833,302.833 331.167,303.167 331.5,303.5C 336.408,302.023 341.408,301.023 346.5,300.5C 345.684,295.547 344.35,290.714 342.5,286C 342.164,284.97 341.497,284.47 340.5,284.5 Z"/></g>
<g><path style="opacity:0.965" fill="#4e7ab5" d="M 113.5,321.5 C 136.916,326.958 160.583,331.125 184.5,334C 198.334,353.176 213.667,371.176 230.5,388C 210.836,407.339 187.836,421.339 161.5,430C 141.937,435.121 126.77,429.287 116,412.5C 108.391,394.237 105.724,375.237 108,355.5C 109.079,344.027 110.912,332.694 113.5,321.5 Z M 122.5,334.5 C 120.694,345.419 119.694,356.419 119.5,367.5C 119.147,379.197 120.98,390.531 125,401.5C 131.084,416.126 141.917,421.626 157.5,418C 178.094,411.54 196.427,401.207 212.5,387C 199.371,373.544 187.371,359.211 176.5,344C 158.395,341.372 140.395,338.205 122.5,334.5 Z"/></g>
<g><path style="opacity:0.967" fill="#4e7ab5" d="M 359.5,321.5 C 361.5,321.5 363.5,321.5 365.5,321.5C 370.177,341.566 372.01,361.899 371,382.5C 370.397,398.669 364.564,412.502 353.5,424C 338.769,432.826 323.436,433.826 307.5,427C 285.294,417.738 265.627,404.738 248.5,388C 265.333,371.176 280.666,353.176 294.5,334C 307.855,332.264 321.188,330.264 334.5,328C 343.118,326.463 351.452,324.296 359.5,321.5 Z M 353.5,334.5 C 336.789,338.51 319.789,341.677 302.5,344C 291.629,359.211 279.629,373.544 266.5,387C 273.632,393.399 281.299,399.065 289.5,404C 301.822,412.218 315.322,417.051 330,418.5C 342.866,418.318 351.199,411.985 355,399.5C 360.6,378.274 360.934,356.94 356,335.5C 355.329,334.748 354.496,334.414 353.5,334.5 Z"/></g>
<g><path style="opacity:0.982" fill="#4e7ab5" d="M 201.5,335.5 C 226.835,336.666 252.168,336.833 277.5,336C 265.736,351.265 253.07,365.765 239.5,379.5C 225.696,365.705 213.029,351.038 201.5,335.5 Z M 226.5,347.5 C 230.812,352.146 235.145,356.813 239.5,361.5C 243.99,356.841 248.323,352.008 252.5,347C 243.657,346.176 234.99,346.343 226.5,347.5 Z"/></g>
</svg>
