<?xml version="1.0" encoding="UTF-8"?>
<!DOCTYPE svg PUBLIC "-//W3C//DTD SVG 1.1//EN" "http://www.w3.org/Graphics/SVG/1.1/DTD/svg11.dtd">
<svg xmlns="http://www.w3.org/2000/svg" version="1.1" width="209px" height="241px" style="shape-rendering:geometricPrecision; text-rendering:geometricPrecision; image-rendering:optimizeQuality; fill-rule:evenodd; clip-rule:evenodd" xmlns:xlink="http://www.w3.org/1999/xlink">
<g><path style="opacity:1" fill="#5ab1e6" d="M 102.5,-0.5 C 103.5,-0.5 104.5,-0.5 105.5,-0.5C 139.634,19.7374 173.967,39.7374 208.5,59.5C 208.5,99.8333 208.5,140.167 208.5,180.5C 208.167,180.5 207.833,180.5 207.5,180.5C 207.667,140.499 207.5,100.499 207,60.5C 206.617,61.056 206.117,61.3893 205.5,61.5C 196.167,66.8333 186.833,72.1667 177.5,77.5C 153.291,63.1408 128.791,49.1408 104,35.5C 79.8433,48.9836 55.6767,62.4836 31.5,76C 30.5047,105.093 30.1713,134.26 30.5,163.5C 29.8333,134.664 29.1667,105.664 28.5,76.5C 19.2514,71.2929 10.0847,65.9595 1,60.5C 0.831818,80.3376 0.331818,100.004 -0.5,119.5C -0.5,99.5 -0.5,79.5 -0.5,59.5C 34.0327,39.7374 68.3661,19.7374 102.5,-0.5 Z"/></g>
<g><path style="opacity:1" fill="#3b76c2" d="M 104.5,74.5 C 104.5,77.5 104.5,80.5 104.5,83.5C 102.206,85.653 99.5396,87.3197 96.5,88.5C 96.8128,84.9581 96.4794,81.6248 95.5,78.5C 89.3999,74.2747 83.0665,70.2747 76.5,66.5C 75.1667,63.8333 75.1667,61.1667 76.5,58.5C 85.8607,63.8452 95.194,69.1785 104.5,74.5 Z"/></g>
<g><path style="opacity:1" fill="#2d3a68" d="M 133.5,57.5 C 133.5,60.5 133.5,63.5 133.5,66.5C 126.869,70.4854 120.202,74.4854 113.5,78.5C 112.523,81.2869 112.19,84.2869 112.5,87.5C 109.807,86.1534 107.14,84.8201 104.5,83.5C 104.5,80.5 104.5,77.5 104.5,74.5C 114.331,69.0856 123.998,63.4189 133.5,57.5 Z"/></g>
<g><path style="opacity:0.039" fill="#ebf3f8" d="M 133.5,57.5 C 134.167,60.1667 134.833,62.8333 135.5,65.5C 135.158,66.3382 134.492,66.6716 133.5,66.5C 133.5,63.5 133.5,60.5 133.5,57.5 Z"/></g>
<g><path style="opacity:1" fill="#3f77c3" d="M 30.5,163.5 C 55.194,177.512 79.8607,191.512 104.5,205.5C 104.172,217.012 104.505,228.346 105.5,239.5C 105.5,239.833 105.5,240.167 105.5,240.5C 104.5,240.5 103.5,240.5 102.5,240.5C 68.3661,220.263 34.0327,200.263 -0.5,180.5C -0.5,160.167 -0.5,139.833 -0.5,119.5C 0.331818,100.004 0.831818,80.3376 1,60.5C 10.0847,65.9595 19.2514,71.2929 28.5,76.5C 29.1667,105.664 29.8333,134.664 30.5,163.5 Z"/></g>
<g><path style="opacity:1" fill="#58b1e6" d="M 133.5,57.5 C 123.998,63.4189 114.331,69.0856 104.5,74.5C 95.194,69.1785 85.8607,63.8452 76.5,58.5C 75.1667,61.1667 75.1667,63.8333 76.5,66.5C 83.0665,70.2747 89.3999,74.2747 95.5,78.5C 86.407,84.261 77.0736,89.5943 67.5,94.5C 57.8119,89.5708 48.3119,84.2375 39,78.5C 38.5001,89.8284 38.3335,101.162 38.5,112.5C 37.1757,100.993 37.1757,89.3266 38.5,77.5C 47.9173,71.7075 57.4173,66.0408 67,60.5C 69.2503,61.7079 71.417,63.0413 73.5,64.5C 73.9981,61.4074 74.9981,58.5741 76.5,56C 85.7294,50.5943 95.0627,45.4276 104.5,40.5C 114.442,45.7932 124.109,51.4599 133.5,57.5 Z"/></g>
<g><path style="opacity:1" fill="#313d6a" d="M 205.5,61.5 C 206.161,101.264 206.828,140.931 207.5,180.5C 173.835,200.668 139.835,220.335 105.5,239.5C 104.505,228.346 104.172,217.012 104.5,205.5C 128.887,191.556 153.053,177.223 177,162.5C 177.5,134.169 177.667,105.835 177.5,77.5C 186.833,72.1667 196.167,66.8333 205.5,61.5 Z"/></g>
<g><path style="opacity:1" fill="#1e2e62" d="M 207.5,180.5 C 206.828,140.931 206.161,101.264 205.5,61.5C 206.117,61.3893 206.617,61.056 207,60.5C 207.5,100.499 207.667,140.499 207.5,180.5 Z"/></g>
<g><path style="opacity:1" fill="#54b0e6" d="M 169.5,77.5 C 169.5,78.1667 169.5,78.8333 169.5,79.5C 160.701,85.0705 151.701,90.4038 142.5,95.5C 132.332,90.5866 122.666,84.92 113.5,78.5C 120.202,74.4854 126.869,70.4854 133.5,66.5C 134.492,66.6716 135.158,66.3382 135.5,65.5C 137.555,64.0523 139.722,62.719 142,61.5C 151.112,66.9712 160.279,72.3045 169.5,77.5 Z"/></g>
<g><path style="opacity:1" fill="#2e3b6a" d="M 95.5,78.5 C 96.4794,81.6248 96.8128,84.9581 96.5,88.5C 90.3577,92.4075 84.0244,96.0742 77.5,99.5C 76.7025,99.9569 76.3691,100.624 76.5,101.5C 76.799,109.253 76.4657,116.92 75.5,124.5C 72.8333,125.833 70.1667,127.167 67.5,128.5C 67.5,117.167 67.5,105.833 67.5,94.5C 77.0736,89.5943 86.407,84.261 95.5,78.5 Z"/></g>
<g><path style="opacity:1" fill="#3c75c2" d="M 67.5,94.5 C 67.5,105.833 67.5,117.167 67.5,128.5C 60.5393,125.353 53.8727,121.687 47.5,117.5C 44.2402,116.226 41.2402,114.56 38.5,112.5C 38.3335,101.162 38.5001,89.8284 39,78.5C 48.3119,84.2375 57.8119,89.5708 67.5,94.5 Z"/></g>
<g><path style="opacity:0.427" fill="#a3aabd" d="M 169.5,77.5 C 170.117,77.6107 170.617,77.944 171,78.5C 171.826,90.3407 171.659,102.007 170.5,113.5C 170.828,101.988 170.495,90.6544 169.5,79.5C 169.5,78.8333 169.5,78.1667 169.5,77.5 Z"/></g>
<g><path style="opacity:1" fill="#3c75c0" d="M 113.5,78.5 C 122.666,84.92 132.332,90.5866 142.5,95.5C 142.5,106.833 142.5,118.167 142.5,129.5C 139.55,128.692 136.883,127.358 134.5,125.5C 134.826,117.316 134.492,109.316 133.5,101.5C 133.631,100.624 133.298,99.9569 132.5,99.5C 125.532,95.8356 118.865,91.8356 112.5,87.5C 112.19,84.2869 112.523,81.2869 113.5,78.5 Z"/></g>
<g><path style="opacity:1" fill="#2e3b69" d="M 169.5,79.5 C 170.495,90.6544 170.828,101.988 170.5,113.5C 167.76,115.56 164.76,117.226 161.5,118.5C 155.33,122.419 148.997,126.086 142.5,129.5C 142.5,118.167 142.5,106.833 142.5,95.5C 151.701,90.4038 160.701,85.0705 169.5,79.5 Z"/></g>
<g><path style="opacity:1" fill="#51aee5" d="M 104.5,83.5 C 107.14,84.8201 109.807,86.1534 112.5,87.5C 118.865,91.8356 125.532,95.8356 132.5,99.5C 133.298,99.9569 133.631,100.624 133.5,101.5C 123.909,106.433 114.576,111.767 105.5,117.5C 96.2884,111.393 86.6218,106.06 76.5,101.5C 76.3691,100.624 76.7025,99.9569 77.5,99.5C 84.0244,96.0742 90.3577,92.4075 96.5,88.5C 99.5396,87.3197 102.206,85.653 104.5,83.5 Z"/></g>
<g><path style="opacity:1" fill="#3c75c2" d="M 76.5,101.5 C 86.6218,106.06 96.2884,111.393 105.5,117.5C 105.172,128.679 105.505,139.679 106.5,150.5C 106.44,151.043 106.107,151.376 105.5,151.5C 98.7993,147.777 92.1327,144.11 85.5,140.5C 82.7598,138.44 79.7598,136.774 76.5,135.5C 76.815,131.629 76.4816,127.962 75.5,124.5C 76.4657,116.92 76.799,109.253 76.5,101.5 Z"/></g>
<g><path style="opacity:1" fill="#2d3b69" d="M 133.5,101.5 C 134.492,109.316 134.826,117.316 134.5,125.5C 134.99,129.487 134.324,133.154 132.5,136.5C 129.669,137.079 127.336,138.412 125.5,140.5C 119.036,143.566 112.702,146.899 106.5,150.5C 105.505,139.679 105.172,128.679 105.5,117.5C 114.576,111.767 123.909,106.433 133.5,101.5 Z"/></g>
<g><path style="opacity:1" fill="#5fb2e6" d="M 47.5,117.5 C 53.8727,121.687 60.5393,125.353 67.5,128.5C 70.1667,127.167 72.8333,125.833 75.5,124.5C 76.4816,127.962 76.815,131.629 76.5,135.5C 73.3388,136.913 70.3388,138.58 67.5,140.5C 57.9062,135.423 48.4062,130.09 39,124.5C 38.5001,135.828 38.3335,147.162 38.5,158.5C 37.3405,147.007 37.1739,135.341 38,123.5C 41.3402,121.637 44.5069,119.637 47.5,117.5 Z"/></g>
<g><path style="opacity:1" fill="#5daee1" d="M 161.5,118.5 C 164.687,120.35 167.853,122.35 171,124.5C 171.826,136.341 171.659,148.007 170.5,159.5C 170.832,148.147 170.499,136.814 169.5,125.5C 160.483,130.861 151.483,136.194 142.5,141.5C 139.193,139.847 135.86,138.18 132.5,136.5C 134.324,133.154 134.99,129.487 134.5,125.5C 136.883,127.358 139.55,128.692 142.5,129.5C 148.997,126.086 155.33,122.419 161.5,118.5 Z"/></g>
<g><path style="opacity:1" fill="#3f76c3" d="M 67.5,140.5 C 66.8564,151.884 67.523,162.884 69.5,173.5C 68.3991,174.598 67.0657,174.765 65.5,174C 56.4726,168.822 47.4726,163.655 38.5,158.5C 38.3335,147.162 38.5001,135.828 39,124.5C 48.4062,130.09 57.9062,135.423 67.5,140.5 Z"/></g>
<g><path style="opacity:1" fill="#2f3c6a" d="M 170.5,159.5 C 161.634,164.766 152.634,169.766 143.5,174.5C 142.505,163.679 142.172,152.679 142.5,141.5C 151.483,136.194 160.483,130.861 169.5,125.5C 170.499,136.814 170.832,148.147 170.5,159.5 Z"/></g>
<g><path style="opacity:1" fill="#2f3c6a" d="M 76.5,135.5 C 79.7598,136.774 82.7598,138.44 85.5,140.5C 82.2911,142.265 79.2911,144.265 76.5,146.5C 76.5,154.167 76.5,161.833 76.5,169.5C 75.5084,169.328 74.8417,169.662 74.5,170.5C 73.0351,171.737 71.3684,172.737 69.5,173.5C 67.523,162.884 66.8564,151.884 67.5,140.5C 70.3388,138.58 73.3388,136.913 76.5,135.5 Z"/></g>
<g><path style="opacity:1" fill="#3f75bf" d="M 132.5,136.5 C 135.86,138.18 139.193,139.847 142.5,141.5C 142.172,152.679 142.505,163.679 143.5,174.5C 140.241,175.075 137.241,174.075 134.5,171.5C 134.5,163.167 134.5,154.833 134.5,146.5C 131.328,144.748 128.328,142.748 125.5,140.5C 127.336,138.412 129.669,137.079 132.5,136.5 Z"/></g>
<g><path style="opacity:1" fill="#51aee5" d="M 85.5,140.5 C 92.1327,144.11 98.7993,147.777 105.5,151.5C 106.107,151.376 106.44,151.043 106.5,150.5C 112.702,146.899 119.036,143.566 125.5,140.5C 128.328,142.748 131.328,144.748 134.5,146.5C 124.967,152.099 115.3,157.433 105.5,162.5C 95.6997,157.433 86.0331,152.099 76.5,146.5C 79.2911,144.265 82.2911,142.265 85.5,140.5 Z"/></g>
<g><path style="opacity:1" fill="#3f77c3" d="M 76.5,146.5 C 86.0331,152.099 95.6997,157.433 105.5,162.5C 105.172,174.012 105.505,185.346 106.5,196.5C 106.44,197.043 106.107,197.376 105.5,197.5C 95.6059,192.059 85.9393,186.392 76.5,180.5C 76.5,176.833 76.5,173.167 76.5,169.5C 76.5,161.833 76.5,154.167 76.5,146.5 Z"/></g>
<g><path style="opacity:1" fill="#303d6a" d="M 134.5,146.5 C 134.5,154.833 134.5,163.167 134.5,171.5C 134.665,174.518 134.498,177.518 134,180.5C 125.188,186.487 116.021,191.82 106.5,196.5C 105.505,185.346 105.172,174.012 105.5,162.5C 115.3,157.433 124.967,152.099 134.5,146.5 Z"/></g>
<g><path style="opacity:0.129" fill="#dce7f3" d="M 74.5,170.5 C 74.8417,169.662 75.5084,169.328 76.5,169.5C 76.5,173.167 76.5,176.833 76.5,180.5C 75.8333,177.167 75.1667,173.833 74.5,170.5 Z"/></g>
</svg>
