<?xml version="1.0" encoding="UTF-8"?>
<!DOCTYPE svg PUBLIC "-//W3C//DTD SVG 1.1//EN" "http://www.w3.org/Graphics/SVG/1.1/DTD/svg11.dtd">
<svg xmlns="http://www.w3.org/2000/svg" version="1.1" width="480px" height="480px" style="shape-rendering:geometricPrecision; text-rendering:geometricPrecision; image-rendering:optimizeQuality; fill-rule:evenodd; clip-rule:evenodd" xmlns:xlink="http://www.w3.org/1999/xlink">
<g><path style="opacity:0.986" fill="#00abc1" d="M 479.5,143.5 C 479.5,144.833 479.5,146.167 479.5,147.5C 472.67,173.835 459.337,196.335 439.5,215C 421.539,228.806 401.205,236.806 378.5,239C 339.17,244.003 303.836,234.67 272.5,211C 256.802,195.634 240.802,180.634 224.5,166C 189.008,146.023 157.174,150.857 129,180.5C 126,184.167 123,187.833 120,191.5C 127.029,151.813 148.529,122.98 184.5,105C 208.071,96.1786 232.405,93.1786 257.5,96C 283.378,98.5084 306.378,107.842 326.5,124C 342.198,139.366 358.198,154.366 374.5,169C 403.401,186.718 431.401,185.384 458.5,165C 466.401,158.601 473.401,151.434 479.5,143.5 Z"/></g>
<g><path style="opacity:0.986" fill="#00abc1" d="M -0.5,335.5 C -0.5,334.167 -0.5,332.833 -0.5,331.5C 6.33004,305.165 19.6634,282.665 39.5,264C 57.4612,250.194 77.7946,242.194 100.5,240C 139.83,234.997 175.164,244.33 206.5,268C 222.198,283.366 238.198,298.366 254.5,313C 290.005,332.975 321.839,328.141 350,298.5C 353,294.833 356,291.167 359,287.5C 351.971,327.187 330.471,356.02 294.5,374C 270.929,382.821 246.595,385.821 221.5,383C 195.098,380.457 171.764,370.791 151.5,354C 136.135,338.967 120.468,324.3 104.5,310C 75.6113,292.281 47.6113,293.615 20.5,314C 12.5993,320.399 5.59932,327.566 -0.5,335.5 Z"/></g>
</svg>
