<?xml version="1.0" encoding="UTF-8"?>
<!DOCTYPE svg PUBLIC "-//W3C//DTD SVG 1.1//EN" "http://www.w3.org/Graphics/SVG/1.1/DTD/svg11.dtd">
<svg xmlns="http://www.w3.org/2000/svg" version="1.1" width="300px" height="272px" style="shape-rendering:geometricPrecision; text-rendering:geometricPrecision; image-rendering:optimizeQuality; fill-rule:evenodd; clip-rule:evenodd" xmlns:xlink="http://www.w3.org/1999/xlink">
<g><path style="opacity:0.902" fill="#feab00" d="M 50.5,-0.5 C 55.8333,-0.5 61.1667,-0.5 66.5,-0.5C 66.6662,5.50924 66.4995,11.5092 66,17.5C 61.2512,18.3052 56.4179,18.8052 51.5,19C 39.9796,22.6553 35.6462,30.4887 38.5,42.5C 34.6156,40.7902 31.4489,38.1235 29,34.5C 25.7841,28.6557 23.2841,22.6557 21.5,16.5C 28.9332,6.95251 38.5999,1.28585 50.5,-0.5 Z"/></g>
<g><path style="opacity:0.912" fill="#feab00" d="M 232.5,-0.5 C 238.5,-0.5 244.5,-0.5 250.5,-0.5C 258.001,1.39638 265.001,4.56304 271.5,9C 274.722,11.9556 277.056,15.4556 278.5,19.5C 276.819,29.3619 272.152,37.5285 264.5,44C 263.255,44.7914 261.922,45.2914 260.5,45.5C 260.666,39.8236 260.499,34.1569 260,28.5C 257.993,23.1622 254.159,19.9956 248.5,19C 243.188,17.7397 238.021,17.2397 233,17.5C 232.501,11.5092 232.334,5.50924 232.5,-0.5 Z"/></g>
<g><path style="opacity:0.924" fill="#fe0300" d="M 21.5,16.5 C 23.2841,22.6557 25.7841,28.6557 29,34.5C 31.4489,38.1235 34.6156,40.7902 38.5,42.5C 38.1904,67.5025 37.6904,92.5025 37,117.5C 35.0143,126.818 29.5143,132.985 20.5,136C 28.0255,137.839 33.1922,142.339 36,149.5C 37.5309,174.456 38.3642,199.456 38.5,224.5C 33.6217,226.539 29.7883,229.873 27,234.5C 23.9183,240.299 21.7516,246.299 20.5,252.5C 19.5769,250.233 18.7436,247.9 18,245.5C 16.8858,217.171 15.8858,188.838 15,160.5C 13.6986,151.593 8.53198,146.927 -0.5,146.5C -0.5,139.167 -0.5,131.833 -0.5,124.5C 6.51138,124.915 11.3447,121.915 14,115.5C 15.7896,85.54 17.123,55.54 18,25.5C 18.8806,22.3531 20.0472,19.3531 21.5,16.5 Z"/></g>
<g><path style="opacity:0.924" fill="#fe0300" d="M 278.5,19.5 C 279.6,21.2774 280.434,23.2774 281,25.5C 282.114,53.8289 283.114,82.1622 284,110.5C 285.301,119.407 290.468,124.073 299.5,124.5C 299.5,131.833 299.5,139.167 299.5,146.5C 290.072,146.427 284.906,151.094 284,160.5C 283.114,188.838 282.114,217.171 281,245.5C 280.59,246.901 280.09,248.234 279.5,249.5C 277.729,243.386 274.895,237.719 271,232.5C 267.872,229.526 264.372,227.193 260.5,225.5C 260.884,201.499 261.384,177.499 262,153.5C 263.986,144.182 269.486,138.015 278.5,135C 270.974,133.161 265.808,128.661 263,121.5C 261.453,96.2108 260.62,70.8775 260.5,45.5C 261.922,45.2914 263.255,44.7914 264.5,44C 272.152,37.5285 276.819,29.3619 278.5,19.5 Z"/></g>
<g><path style="opacity:0.609" fill="#8e908f" d="M 97.5,36.5 C 119.836,36.3334 142.169,36.5 164.5,37C 165.931,37.4652 167.097,38.2986 168,39.5C 169.649,67.0801 169.982,94.7467 169,122.5C 168.535,123.931 167.701,125.097 166.5,126C 143.588,127.645 120.588,127.979 97.5,127C 96.0692,126.535 94.9025,125.701 94,124.5C 92.3509,96.9199 92.0175,69.2533 93,41.5C 94.025,39.313 95.525,37.6464 97.5,36.5 Z M 98.5,41.5 C 120.409,41.173 142.242,41.5063 164,42.5C 164.828,69.0722 164.661,95.5722 163.5,122C 141.594,122.827 119.76,122.66 98,121.5C 97.1764,94.7612 97.3431,68.0945 98.5,41.5 Z"/></g>
<g><path style="opacity:0.724" fill="#8e908f" d="M 103.5,52.5 C 121.836,52.3334 140.17,52.5001 158.5,53C 159.406,54.6995 159.739,56.5328 159.5,58.5C 140.833,58.5 122.167,58.5 103.5,58.5C 103.5,56.5 103.5,54.5 103.5,52.5 Z"/></g>
<g><path style="opacity:0.567" fill="#8e908f" d="M 103.5,69.5 C 105.5,69.5 107.5,69.5 109.5,69.5C 109.5,71.5 109.5,73.5 109.5,75.5C 107.5,75.5 105.5,75.5 103.5,75.5C 103.5,73.5 103.5,71.5 103.5,69.5 Z"/></g>
<g><path style="opacity:0.728" fill="#8e908f" d="M 110.5,69.5 C 126.503,69.3334 142.503,69.5001 158.5,70C 159.406,71.6995 159.739,73.5328 159.5,75.5C 143.167,75.5 126.833,75.5 110.5,75.5C 110.5,73.5 110.5,71.5 110.5,69.5 Z"/></g>
<g><path style="opacity:0.714" fill="#8e908f" d="M 178.5,81.5 C 187.833,81.5 197.167,81.5 206.5,81.5C 206.5,117.833 206.5,154.167 206.5,190.5C 197.249,190.818 188.083,190.485 179,189.5C 178.28,187.888 178.446,186.388 179.5,185C 186.826,184.5 194.159,184.334 201.5,184.5C 201.5,151.833 201.5,119.167 201.5,86.5C 194.159,86.6663 186.826,86.4997 179.5,86C 178.62,84.6439 178.286,83.1439 178.5,81.5 Z"/></g>
<g><path style="opacity:0.581" fill="#8e908f" d="M 103.5,88.5 C 105.5,88.5 107.5,88.5 109.5,88.5C 109.5,90.5 109.5,92.5 109.5,94.5C 104.5,95.5 102.5,93.5 103.5,88.5 Z"/></g>
<g><path style="opacity:0.727" fill="#8e908f" d="M 110.5,88.5 C 126.833,88.5 143.167,88.5 159.5,88.5C 159.739,90.4672 159.406,92.3005 158.5,94C 142.503,94.4999 126.503,94.6666 110.5,94.5C 110.5,92.5 110.5,90.5 110.5,88.5 Z"/></g>
<g><path style="opacity:0.557" fill="#8e908f" d="M 103.5,107.5 C 105.5,107.5 107.5,107.5 109.5,107.5C 109.5,109.5 109.5,111.5 109.5,113.5C 107.5,113.5 105.5,113.5 103.5,113.5C 103.5,111.5 103.5,109.5 103.5,107.5 Z"/></g>
<g><path style="opacity:0.716" fill="#8e908f" d="M 110.5,107.5 C 126.833,107.5 143.167,107.5 159.5,107.5C 159.739,109.467 159.406,111.301 158.5,113C 142.503,113.5 126.503,113.667 110.5,113.5C 110.5,111.5 110.5,109.5 110.5,107.5 Z"/></g>
<g><path style="opacity:0.636" fill="#8e908f" d="M 96.5,141.5 C 119.502,141.333 142.502,141.5 165.5,142C 166.333,142.833 167.167,143.667 168,144.5C 169.649,172.08 169.982,199.747 169,227.5C 168.535,228.931 167.701,230.097 166.5,231C 143.897,232.635 121.23,232.968 98.5,232C 96.9194,231.293 95.4194,230.46 94,229.5C 92.3509,201.92 92.0175,174.253 93,146.5C 93.9973,144.677 95.1639,143.01 96.5,141.5 Z M 99.5,145.5 C 120.879,145.178 142.212,145.511 163.5,146.5C 164.828,173.399 164.828,200.233 163.5,227C 141.594,227.827 119.76,227.66 98,226.5C 97.8333,213.167 97.6667,199.833 97.5,186.5C 97.5177,172.611 98.1843,158.945 99.5,145.5 Z"/></g>
<g><path style="opacity:0.734" fill="#8e908f" d="M 103.5,157.5 C 121.836,157.333 140.17,157.5 158.5,158C 159.833,159.667 159.833,161.333 158.5,163C 140.17,163.5 121.836,163.667 103.5,163.5C 103.5,161.5 103.5,159.5 103.5,157.5 Z"/></g>
<g><path style="opacity:0.571" fill="#8e908f" d="M 103.5,174.5 C 105.5,174.5 107.5,174.5 109.5,174.5C 109.5,176.5 109.5,178.5 109.5,180.5C 107.5,180.5 105.5,180.5 103.5,180.5C 103.5,178.5 103.5,176.5 103.5,174.5 Z"/></g>
<g><path style="opacity:0.722" fill="#8e908f" d="M 110.5,174.5 C 126.503,174.333 142.503,174.5 158.5,175C 159.833,176.667 159.833,178.333 158.5,180C 142.503,180.5 126.503,180.667 110.5,180.5C 110.5,178.5 110.5,176.5 110.5,174.5 Z"/></g>
<g><path style="opacity:0.521" fill="#8e908f" d="M 104.5,192.5 C 106.167,192.5 107.833,192.5 109.5,192.5C 109.662,194.527 109.495,196.527 109,198.5C 103.651,199.895 102.151,197.895 104.5,192.5 Z"/></g>
<g><path style="opacity:0.71" fill="#8e908f" d="M 110.5,192.5 C 126.503,192.333 142.503,192.5 158.5,193C 159.406,194.699 159.739,196.533 159.5,198.5C 143.167,198.5 126.833,198.5 110.5,198.5C 110.5,196.5 110.5,194.5 110.5,192.5 Z"/></g>
<g><path style="opacity:0.521" fill="#8e908f" d="M 104.5,211.5 C 106.144,211.286 107.644,211.62 109,212.5C 109.495,214.473 109.662,216.473 109.5,218.5C 103.753,219.129 102.086,216.795 104.5,211.5 Z"/></g>
<g><path style="opacity:0.71" fill="#8e908f" d="M 110.5,212.5 C 126.833,212.5 143.167,212.5 159.5,212.5C 159.739,214.467 159.406,216.301 158.5,218C 142.503,218.5 126.503,218.667 110.5,218.5C 110.5,216.5 110.5,214.5 110.5,212.5 Z"/></g>
<g><path style="opacity:0.911" fill="#feab00" d="M 38.5,224.5 C 34.6111,246.108 43.4445,255.441 65,252.5C 66.4554,258.653 66.9554,264.986 66.5,271.5C 60.5,271.5 54.5,271.5 48.5,271.5C 41.0104,269.606 34.0104,266.44 27.5,262C 24.5471,259.248 22.2137,256.082 20.5,252.5C 21.7516,246.299 23.9183,240.299 27,234.5C 29.7883,229.873 33.6217,226.539 38.5,224.5 Z"/></g>
<g><path style="opacity:0.902" fill="#ffab00" d="M 260.5,225.5 C 264.372,227.193 267.872,229.526 271,232.5C 274.895,237.719 277.729,243.386 279.5,249.5C 277.195,255.313 273.528,260.146 268.5,264C 262.122,267.621 255.455,270.121 248.5,271.5C 243.167,271.5 237.833,271.5 232.5,271.5C 232.334,265.491 232.501,259.491 233,253.5C 239.929,253.062 246.763,251.895 253.5,250C 255.333,248.167 257.167,246.333 259,244.5C 260.416,238.285 260.916,231.952 260.5,225.5 Z"/></g>
</svg>
