<?xml version="1.0" encoding="UTF-8"?>
<!DOCTYPE svg PUBLIC "-//W3C//DTD SVG 1.1//EN" "http://www.w3.org/Graphics/SVG/1.1/DTD/svg11.dtd">
<svg xmlns="http://www.w3.org/2000/svg" version="1.1" width="480px" height="480px" style="shape-rendering:geometricPrecision; text-rendering:geometricPrecision; image-rendering:optimizeQuality; fill-rule:evenodd; clip-rule:evenodd" xmlns:xlink="http://www.w3.org/1999/xlink">
<g><path style="opacity:1" fill="#1976d2" d="M 59.5,59.5 C 179.5,59.5 299.5,59.5 419.5,59.5C 419.5,179.5 419.5,299.5 419.5,419.5C 299.5,419.5 179.5,419.5 59.5,419.5C 59.5,299.5 59.5,179.5 59.5,59.5 Z"/></g>
<g><path style="opacity:1" fill="#fdfdfe" d="M 142.5,219.5 C 186.5,219.5 230.5,219.5 274.5,219.5C 274.5,230.5 274.5,241.5 274.5,252.5C 258.833,252.5 243.167,252.5 227.5,252.5C 227.5,301.5 227.5,350.5 227.5,399.5C 214.833,399.5 202.167,399.5 189.5,399.5C 189.5,350.5 189.5,301.5 189.5,252.5C 174.009,251.504 158.342,251.17 142.5,251.5C 142.5,240.833 142.5,230.167 142.5,219.5 Z"/></g>
<g><path style="opacity:1" fill="#fdfdfe" d="M 287.5,391.5 C 287.171,378.323 287.505,365.323 288.5,352.5C 304.934,364.364 323.267,369.197 343.5,367C 357.399,363.366 361.899,354.866 357,341.5C 355.167,339.667 353.333,337.833 351.5,336C 337.005,328.254 322.672,320.254 308.5,312C 289.113,297.031 282.28,277.531 288,253.5C 292.681,240.151 301.515,230.651 314.5,225C 329.426,219.86 344.76,218.193 360.5,220C 371.23,221.178 381.897,222.678 392.5,224.5C 392.333,236.512 391.833,248.512 391,260.5C 373.748,248.887 355.248,246.054 335.5,252C 326.58,257.695 324.08,265.528 328,275.5C 330.124,278.325 332.624,280.825 335.5,283C 351.441,290.302 366.774,298.636 381.5,308C 396.834,320.664 402.667,336.831 399,356.5C 394.289,380.544 379.789,394.377 355.5,398C 332.378,400.23 309.711,398.064 287.5,391.5 Z"/></g>
<g><path style="opacity:1" fill="#b2d1f0" d="M 142.5,219.5 C 142.5,230.167 142.5,240.833 142.5,251.5C 158.342,251.17 174.009,251.504 189.5,252.5C 173.5,252.5 157.5,252.5 141.5,252.5C 141.172,241.321 141.505,230.321 142.5,219.5 Z"/></g>
<g><path style="opacity:1" fill="#63a2e0" d="M 288.5,352.5 C 287.505,365.323 287.171,378.323 287.5,391.5C 286.175,378.327 286.175,364.994 287.5,351.5C 288.107,351.624 288.44,351.957 288.5,352.5 Z"/></g>
</svg>
